<?xml version="1.0" encoding="UTF-8" standalone="no"?>
<!-- Created with Inkscape (http://www.inkscape.org/) -->

<svg
   xmlns:dc="http://purl.org/dc/elements/1.1/"
   xmlns:cc="http://creativecommons.org/ns#"
   xmlns:rdf="http://www.w3.org/1999/02/22-rdf-syntax-ns#"
   xmlns:svg="http://www.w3.org/2000/svg"
   xmlns="http://www.w3.org/2000/svg"
   xmlns:sodipodi="http://sodipodi.sourceforge.net/DTD/sodipodi-0.dtd"
   xmlns:inkscape="http://www.inkscape.org/namespaces/inkscape"
   width="210mm"
   height="297mm"
   viewBox="0 0 210 297"
   version="1.1"
   id="svg5428"
   inkscape:version="0.92.3 (2405546, 2018-03-11)"
   sodipodi:docname="def.svg">
  <defs
     id="defs5422" />
  <sodipodi:namedview
     id="base"
     pagecolor="#ffffff"
     bordercolor="#666666"
     borderopacity="1.0"
     inkscape:pageopacity="0.0"
     inkscape:pageshadow="2"
     inkscape:zoom="0.35"
     inkscape:cx="400"
     inkscape:cy="560"
     inkscape:document-units="mm"
     inkscape:current-layer="layer1"
     showgrid="false"
     inkscape:window-width="1366"
     inkscape:window-height="700"
     inkscape:window-x="0"
     inkscape:window-y="0"
     inkscape:window-maximized="1" />
  <metadata
     id="metadata5425">
    <rdf:RDF>
      <cc:Work
         rdf:about="">
        <dc:format>image/svg+xml</dc:format>
        <dc:type
           rdf:resource="http://purl.org/dc/dcmitype/StillImage" />
        <dc:title></dc:title>
      </cc:Work>
    </rdf:RDF>
  </metadata>
  <g
     inkscape:label="Capa 1"
     inkscape:groupmode="layer"
     id="layer1">
    <text
       style="font-variant:normal;font-weight:normal;font-size:14.99897003px;font-family:CMR10;-inkscape-font-specification:CMR10;writing-mode:lr-tb;fill:#000000;fill-opacity:1;fill-rule:nonzero;stroke:none;stroke-width:1.50552773"
       id="text3840"
       x="169.66824"
       y="389.81732"
       transform="scale(1.1259105,0.88817009)">
      <tspan
         x="169.66824"
         y="389.81732"
         id="tspan3838"
         style="stroke-width:1.50552773">3</tspan>
    </text>
    <g
       id="g4092"
       transform="matrix(1.432665,0,0,-2.9519951,-173.39251,162.97485)">
      <path
         d="M 0,0 H 314.017 V 47.682 H 0 Z"
         style="fill:#ffffff;fill-opacity:1;fill-rule:nonzero;stroke:none"
         id="path4094"
         inkscape:connector-curvature="0" />
    </g>
    <text
       style="font-variant:normal;font-weight:normal;font-size:20.48815536px;font-family:CMBX10;-inkscape-font-specification:CMBX10;writing-mode:lr-tb;fill:#000000;fill-opacity:1;fill-rule:nonzero;stroke:none;stroke-width:2.05650687"
       id="text4102"
       x="-217.47954"
       y="59.242569"
       transform="scale(0.69664978,1.4354415)">
      <tspan
         x="-217.47954 -199.41101 -183.93022 -169.10498 -160.16991 -141.7308 -132.79588 -115.77838"
         y="59.242569"
         sodipodi:role="line"
         id="tspan4096"
         style="stroke-width:2.05650687">DEFINICI</tspan>
      <tspan
         x="-103.88425"
         y="54.290508"
         id="tspan4098"
         style="stroke-width:2.05650687">´</tspan>
      <tspan
         x="-106.84361 -89.143867 -62.85751 -43.209446 -34.047127 -17.029638 -5.2490053 14.384708 27.474648 34.018646 40.562492 52.015388 65.105255 76.886032 86.589272 93.133041"
         y="59.242569"
         sodipodi:role="line"
         id="tspan4100"
         style="stroke-width:2.05650687">ON1(Compilador.)</tspan>
    </text>
    <text
       style="font-variant:normal;font-weight:normal;font-size:20.48815536px;font-family:CMTI10;-inkscape-font-specification:CMTI10;writing-mode:lr-tb;fill:#000000;fill-opacity:1;fill-rule:nonzero;stroke:none;stroke-width:2.05650687"
       id="text4108"
       x="112.53652"
       y="59.242569"
       transform="scale(0.69664978,1.4354415)">
      <tspan
         x="112.53652 126.43351 145.21898 156.21507 178.1416 188.61296 196.20804 205.63464 215.05936 222.65405 233.12546 249.88063 270.76001 281.23145 301.06403 309.44373 319.91534 336.67062 347.14191 358.13806"
         y="59.242569"
         sodipodi:role="line"
         id="tspan4104"
         style="stroke-width:2.05650687">Esunprogramadecompu-</tspan>
      <tspan
         x="-217.47954 -210.67337 -200.2019 -189.73051 -179.2589 -171.66393 -153.85779 -144.43307 -133.43723 -116.69827 -109.89211 -102.29715 -91.825745 -81.354118 -70.358177 -61.978382 -45.219318 -27.413027 -16.941553 -10.135244 -2.5402856 15.245591 25.716841 33.311798 42.738667 52.162842 59.758026 70.229576 86.984604 104.79098 115.26237 132.0219 140.38113 150.85248 167.60762 178.07918 189.07504 195.88142 206.35286 216.8244 227.29578 234.89069 252.6969 258.98065 269.45209 283.07043"
         y="83.828171"
         sodipodi:role="line"
         id="tspan4106"
         style="stroke-width:2.05650687">tadoraquetraduceaotroprogramadecomputadora[5].</tspan>
    </text>
    <g
       id="g4110"
       transform="matrix(1.432665,0,0,-2.9519951,-174.24932,21.627388)">
      <path
         d="M 0,0 H 314.814"
         style="fill:none;stroke:#0000ff;stroke-width:0.398;stroke-linecap:butt;stroke-linejoin:miter;stroke-miterlimit:10;stroke-dasharray:none;stroke-opacity:1"
         id="path4112"
         inkscape:connector-curvature="0" />
    </g>
    <g
       id="g4114"
       transform="matrix(1.432665,0,0,-2.9519951,-173.67906,163.56228)">
      <path
         d="M 0,0 V 48.081"
         style="fill:none;stroke:#0000ff;stroke-width:0.398;stroke-linecap:butt;stroke-linejoin:miter;stroke-miterlimit:10;stroke-dasharray:none;stroke-opacity:1"
         id="path4116"
         inkscape:connector-curvature="0" />
    </g>
    <g
       id="g4118"
       transform="matrix(1.432665,0,0,-2.9519951,276.7737,163.56228)">
      <path
         d="M 0,0 V 48.081"
         style="fill:none;stroke:#0000ff;stroke-width:0.398;stroke-linecap:butt;stroke-linejoin:miter;stroke-miterlimit:10;stroke-dasharray:none;stroke-opacity:1"
         id="path4120"
         inkscape:connector-curvature="0" />
    </g>
    <g
       id="g4122"
       transform="matrix(1.432665,0,0,-2.9519951,-173.96415,163.56228)">
      <path
         d="M 0,0 H 314.814"
         style="fill:none;stroke:#0000ff;stroke-width:0.398;stroke-linecap:butt;stroke-linejoin:miter;stroke-miterlimit:10;stroke-dasharray:none;stroke-opacity:1"
         id="path4124"
         inkscape:connector-curvature="0" />
    </g>
    <g
       id="g4126"
       transform="matrix(1.6950893,0,0,-1.3371645,-190.89021,312.19537)">
      <path
         d="M 0,0 H 314.017 V 95.503 H 0 Z"
         style="fill:#ffffff;fill-opacity:1;fill-rule:nonzero;stroke:none"
         id="path4128"
         inkscape:connector-curvature="0" />
    </g>
    <text
       style="font-variant:normal;font-weight:normal;font-size:14.99897003px;font-family:CMBX10;-inkscape-font-specification:CMBX10;writing-mode:lr-tb;fill:#000000;fill-opacity:1;fill-rule:nonzero;stroke:none;stroke-width:1.50552773"
       id="text4136"
       x="-146.5446"
       y="239.76073"
       transform="scale(1.1259105,0.88817009)">
      <tspan
         x="-146.5446 -133.317 -121.98379 -111.13056 -104.58947 -91.090439 -84.54937 -72.091202"
         y="239.76073"
         sodipodi:role="line"
         id="tspan4130"
         style="stroke-width:1.50552773">DEFINICI</tspan>
      <tspan
         x="-63.383732"
         y="236.1369"
         id="tspan4132"
         style="stroke-width:1.50552773">´</tspan>
      <tspan
         x="-65.550247 -52.592621 -33.348919 -18.964914 -12.257399 -5.7163286 3.3865209 9.7340593 10.094035 18.000002 25.103703 34.686352 41.789917 49.695885 56.4034 64.309364 69.100105"
         y="239.76073"
         sodipodi:role="line"
         id="tspan4134"
         style="stroke-width:1.50552773">ON2(Int´erprete.)</tspan>
    </text>
    <text
       style="font-variant:normal;font-weight:normal;font-size:14.99897003px;font-family:CMTI10;-inkscape-font-specification:CMTI10;writing-mode:lr-tb;fill:#000000;fill-opacity:1;fill-rule:nonzero;stroke:none;stroke-width:1.50552773"
       id="text4150"
       x="83.304375"
       y="239.76073"
       transform="scale(1.1259105,0.88817009)">
      <tspan
         x="83.304375 94.804192 99.786713 105.34682 118.68241 123.66508 128.26515 135.16623 148.50189 156.1678 168.75203 173.7347 179.29477 186.96074 194.62683 202.67665 209.5762 214.55881 222.22475 228.54985 238.81981 243.41835 247.25203 254.91824 267.1842 274.85013"
         y="239.76073"
         sodipodi:role="line"
         id="tspan4138"
         style="stroke-width:1.50552773">Otrotipodetraductor,llama-</tspan>
      <tspan
         x="-146.5446 -138.87852 -125.243 -120.64285 -112.21048 -107.60281 -107.22627 -100.32678 -94.00164 -86.335701 -80.775589 -73.876106 -68.893456 -61.993847 -51.424122 -43.758057 -38.198067 -31.297026 -25.162285 -18.262934 -12.12977 1.5057554 8.405241 22.822323 27.422459 35.088394 41.413532 53.679604 67.315254 71.91539 80.347908 85.330421 92.230034 98.555046 106.9874 120.62322 127.52258 137.34096 145.00687 150.56706 157.45308 164.35258 169.91272 177.57861 189.84485 203.49538 208.09561 216.14563 223.04524 231.47743 236.46014 249.32924 262.5824 266.41614 274.08197"
         y="257.76089"
         sodipodi:role="line"
         id="tspan4140"
         style="stroke-width:1.50552773">doint´erprete,procesaenformainternaelprogramafuenteylos</tspan>
      <tspan
         x="-146.5446 -138.87852 -131.21272 -126.2298 -118.56402 -107.18134 -99.515144 -90.431953 -78.165749 -73.56562 -67.432587 -55.166252 -42.250683 -37.252926 -32.6679 -25.768419 -13.502211 -6.6011672 1.0647714 10.929645 21.103443 32.486111 40.152046 46.286774 53.186131 57.786396 64.111404 73.961304 77.794983 90.710556 95.310822 103.7432 108.72585 115.62536 121.9505 129.61653 135.17653 142.07613 147.05885 154.72473 161.62437 166.22462 166.22594 173.89188 187.57402 195.23996 202.13943 211.2229 215.82303 223.48895 229.8141 242.08043 250.13019 253.96382 261.62994 267.95496 272.55518"
         y="275.75934"
         sodipodi:role="line"
         id="tspan4142"
         style="stroke-width:1.50552773">datosalmismotiempo.Esdecir,lainterpretaci´ondelformulario</tspan>
      <tspan
         x="-146.5446 -138.87852 -127.80935 -120.14327 -113.81841 -109.21814 -102.31865 -95.419151 -82.831909 -78.231781 -69.7994 -64.81675 -57.917149 -51.592125 -43.15974 -31.323978 -25.190945 -14.121624 -6.4556913 -0.91054654 5.9903698 13.656436 21.706314 27.840912 38.910225 45.809715 58.39682 63.394447 67.979729 74.879219 87.145416 94.046341 105.8821 113.54803 124.61726 131.51688 136.11694 142.2516 149.15109 157.18611 164.08562 168.68575 168.6873 176.35321 188.9556 200.40872 208.84093 220.66176 226.79492 237.86409 244.76358 251.66304 260.0954 266.99503 272.55518"
         y="293.75797"
         sodipodi:role="line"
         id="tspan4144"
         style="stroke-width:1.50552773">deorigeninternoseproduceentiempodeejecuci´onynosegenera</tspan>
      <tspan
         x="-146.5446 -138.11221 -133.51193 -125.07943 -117.9851 -118.17851 -110.12862 -96.32653 -88.660591 -83.100342 -76.214401 -69.314903 -63.754799 -56.088844 -43.822655 -30.787003 -23.121069 -16.221581 -11.621317 -4.7218328 0.26080981 7.9267464"
         y="311.7565"
         sodipodi:role="line"
         id="tspan4146"
         style="stroke-width:1.50552773">ning´unprogramaobjeto.</tspan>
      <tspan
         x="-146.5446 -141.94444 -134.2784 -124.30867"
         y="329.75513"
         sodipodi:role="line"
         id="tspan4148"
         style="stroke-width:1.50552773">[7].</tspan>
    </text>
    <g
       id="g4152"
       transform="matrix(1.6950893,0,0,-1.3371645,-191.56656,184.22601)">
      <path
         d="M 0,0 H 314.814"
         style="fill:none;stroke:#0000ff;stroke-width:0.398;stroke-linecap:butt;stroke-linejoin:miter;stroke-miterlimit:10;stroke-dasharray:none;stroke-opacity:1"
         id="path4154"
         inkscape:connector-curvature="0" />
    </g>
    <g
       id="g4156"
       transform="matrix(1.6950893,0,0,-1.3371645,-191.22925,312.46147)">
      <path
         d="M 0,0 V 95.901"
         style="fill:none;stroke:#0000ff;stroke-width:0.398;stroke-linecap:butt;stroke-linejoin:miter;stroke-miterlimit:10;stroke-dasharray:none;stroke-opacity:1"
         id="path4158"
         inkscape:connector-curvature="0" />
    </g>
    <g
       id="g4160"
       transform="matrix(1.6950893,0,0,-1.3371645,341.73389,312.46147)">
      <path
         d="M 0,0 V 95.901"
         style="fill:none;stroke:#0000ff;stroke-width:0.398;stroke-linecap:butt;stroke-linejoin:miter;stroke-miterlimit:10;stroke-dasharray:none;stroke-opacity:1"
         id="path4162"
         inkscape:connector-curvature="0" />
    </g>
    <g
       id="g4164"
       transform="matrix(1.6950893,0,0,-1.3371645,-191.56656,312.46147)">
      <path
         d="M 0,0 H 314.814"
         style="fill:none;stroke:#0000ff;stroke-width:0.398;stroke-linecap:butt;stroke-linejoin:miter;stroke-miterlimit:10;stroke-dasharray:none;stroke-opacity:1"
         id="path4166"
         inkscape:connector-curvature="0" />
    </g>
  </g>
</svg>
