<?xml version="1.0" encoding="UTF-8" standalone="no"?>
<!-- Created with Inkscape (http://www.inkscape.org/) -->

<svg
   xmlns:dc="http://purl.org/dc/elements/1.1/"
   xmlns:cc="http://creativecommons.org/ns#"
   xmlns:rdf="http://www.w3.org/1999/02/22-rdf-syntax-ns#"
   xmlns:svg="http://www.w3.org/2000/svg"
   xmlns="http://www.w3.org/2000/svg"
   xmlns:sodipodi="http://sodipodi.sourceforge.net/DTD/sodipodi-0.dtd"
   xmlns:inkscape="http://www.inkscape.org/namespaces/inkscape"
   width="394.85132mm"
   height="394.6012mm"
   viewBox="0 0 394.85132 394.6012"
   version="1.1"
   id="svg2853"
   inkscape:version="0.92.3 (2405546, 2018-03-11)"
   sodipodi:docname="Presentacion6.svg">
  <defs
     id="defs2847" />
  <sodipodi:namedview
     id="base"
     pagecolor="#ffffff"
     bordercolor="#666666"
     borderopacity="1.0"
     inkscape:pageopacity="0.0"
     inkscape:pageshadow="2"
     inkscape:zoom="0.35"
     inkscape:cx="-110.96714"
     inkscape:cy="555.70306"
     inkscape:document-units="mm"
     inkscape:current-layer="layer1"
     showgrid="false"
     inkscape:window-width="1853"
     inkscape:window-height="1025"
     inkscape:window-x="67"
     inkscape:window-y="27"
     inkscape:window-maximized="1" />
  <metadata
     id="metadata2850">
    <rdf:RDF>
      <cc:Work
         rdf:about="">
        <dc:format>image/svg+xml</dc:format>
        <dc:type
           rdf:resource="http://purl.org/dc/dcmitype/StillImage" />
        <dc:title></dc:title>
      </cc:Work>
    </rdf:RDF>
  </metadata>
  <g
     inkscape:label="Capa 1"
     inkscape:groupmode="layer"
     id="layer1"
     transform="translate(-1.0118424,98.738105)">
    <g
       transform="matrix(1.0882393,0,0,-1.450068,1.0118424,295.8631)"
       inkscape:label="Presentacion6MMComp"
       id="g3425">
      <g
         id="g3427">
        <path
           inkscape:connector-curvature="0"
           id="path3429"
           style="fill:#ffffff;fill-opacity:1;fill-rule:nonzero;stroke:none"
           d="M 0,0 H 362.835 V 272.126 H 0 Z" />
      </g>
      <g
         transform="translate(233.391,12.121)"
         id="g3431">
        <g
           id="g3433">
          <g
             id="g3435" />
          <g
             id="g3437">
            <g
               id="g3439">
              <path
                 inkscape:connector-curvature="0"
                 id="path3441"
                 style="fill:none;stroke:#adade0;stroke-width:0.3985;stroke-linecap:butt;stroke-linejoin:miter;stroke-miterlimit:10;stroke-dasharray:none;stroke-opacity:1"
                 d="m 8.26909,0.79701 h 3.38733 V 3.18806 H 8.26909 Z" />
            </g>
          </g>
          <g
             id="g3443">
            <g
               id="g3445">
              <path
                 inkscape:connector-curvature="0"
                 id="path3447"
                 style="fill:#d6d6f0;fill-opacity:1;fill-rule:nonzero;stroke:none"
                 d="M 4.00005,0.49998 2.00002,2.00002 4.00005,3.50003" />
              <path
                 inkscape:connector-curvature="0"
                 id="path3449"
                 style="fill:#d6d6f0;fill-opacity:1;fill-rule:nonzero;stroke:none"
                 d="M 16.0002,0.49998 18.00021,2.00002 16.0002,3.50003" />
            </g>
          </g>
        </g>
        <g
           transform="translate(21.337)"
           id="g3451">
          <g
             id="g3453">
            <g
               id="g3455" />
            <g
               id="g3457">
              <g
                 id="g3459">
                <path
                   inkscape:connector-curvature="0"
                   id="path3461"
                   style="fill:none;stroke:#adade0;stroke-width:0.3985;stroke-linecap:butt;stroke-linejoin:miter;stroke-miterlimit:10;stroke-dasharray:none;stroke-opacity:1"
                   d="m 6.97394,0 h 3.38733 V 2.39105 H 6.97394 Z m 0.82614,2.40001 v 0.80002 h 3.40004 V 0.8 H 10.4001 m -1.8,2.40003 v 0.80002 h 3.40005 V 1.60002 h -0.80003" />
              </g>
            </g>
            <g
               id="g3463">
              <g
                 id="g3465">
                <path
                   inkscape:connector-curvature="0"
                   id="path3467"
                   style="fill:#d6d6f0;fill-opacity:1;fill-rule:nonzero;stroke:none"
                   d="M 4.00005,0.49998 2.00002,2.00002 4.00005,3.50003 M 16.0002,0.49998 18.00021,2.00002 16.0002,3.50003" />
              </g>
            </g>
          </g>
          <g
             transform="translate(21.337)"
             id="g3469">
            <g
               id="g3471">
              <g
                 id="g3473" />
              <g
                 id="g3475">
                <g
                   id="g3477">
                  <path
                     inkscape:connector-curvature="0"
                     id="path3479"
                     style="fill:none;stroke:#adade0;stroke-width:0.59776002;stroke-linecap:butt;stroke-linejoin:miter;stroke-miterlimit:10;stroke-dasharray:none;stroke-opacity:1"
                     d="m 9.00009,3.00003 h 3.00006" />
                </g>
              </g>
              <g
                 id="g3481">
                <g
                   id="g3483">
                  <path
                     inkscape:connector-curvature="0"
                     id="path3485"
                     style="fill:#d6d6f0;fill-opacity:1;fill-rule:nonzero;stroke:none"
                     d="M 4.00005,0.49998 2.00002,2.00002 4.00005,3.50003 M 16.0002,0.49998 18.00021,2.00002 16.0002,3.50003" />
                  <path
                     inkscape:connector-curvature="0"
                     id="path3487"
                     style="fill:none;stroke:#d6d6f0;stroke-width:0.59776002;stroke-linecap:butt;stroke-linejoin:miter;stroke-miterlimit:10;stroke-dasharray:none;stroke-opacity:1"
                     d="m 8.00009,4.00005 h 3.00003 M 9.00009,2.00002 h 3.00006 M 8.00009,1 h 3.00003 M 9.00009,0 h 3.00006" />
                </g>
              </g>
            </g>
            <g
               transform="translate(21.336)"
               id="g3489">
              <g
                 id="g3491">
                <g
                   id="g3493" />
                <g
                   id="g3495">
                  <g
                     id="g3497">
                    <path
                       inkscape:connector-curvature="0"
                       id="path3499"
                       style="fill:none;stroke:#adade0;stroke-width:0.59776002;stroke-linecap:butt;stroke-linejoin:miter;stroke-miterlimit:10;stroke-dasharray:none;stroke-opacity:1"
                       d="m 8.00009,4.00005 h 3.00003 M 9.00009,3.00003 h 3.00006 M 9.00009,2.00002 h 3.00006" />
                  </g>
                </g>
                <g
                   id="g3501">
                  <g
                     id="g3503">
                    <path
                       inkscape:connector-curvature="0"
                       id="path3505"
                       style="fill:#d6d6f0;fill-opacity:1;fill-rule:nonzero;stroke:none"
                       d="M 4.00005,0.49998 2.00002,2.00002 4.00005,3.50003 M 16.0002,0.49998 18.00021,2.00002 16.0002,3.50003" />
                    <path
                       inkscape:connector-curvature="0"
                       id="path3507"
                       style="fill:none;stroke:#d6d6f0;stroke-width:0.59776002;stroke-linecap:butt;stroke-linejoin:miter;stroke-miterlimit:10;stroke-dasharray:none;stroke-opacity:1"
                       d="m 8.00009,1 h 3.00003 M 9.00009,0 h 3.00006" />
                  </g>
                </g>
              </g>
              <g
                 transform="translate(21.337)"
                 id="g3509">
                <g
                   id="g3511">
                  <g
                     id="g3513" />
                  <g
                     id="g3515">
                    <g
                       id="g3517">
                      <path
                         inkscape:connector-curvature="0"
                         id="path3519"
                         style="fill:none;stroke:#adade0;stroke-width:0.59776002;stroke-linecap:butt;stroke-linejoin:miter;stroke-miterlimit:10;stroke-dasharray:none;stroke-opacity:1"
                         d="m 8.00009,4.00005 h 3.00003 M 9.00009,3.00003 h 3.00006 M 9.00009,2.00002 h 3.00006 M 8.00009,1 h 3.00003 M 9.00009,0 h 3.00006" />
                    </g>
                  </g>
                </g>
                <g
                   transform="translate(21.337)"
                   id="g3521">
                  <g
                     id="g3523">
                    <g
                       id="g3525" />
                    <g
                       id="g3527">
                      <g
                         id="g3529">
                        <path
                           inkscape:connector-curvature="0"
                           id="path3531"
                           style="fill:none;stroke:#adade0;stroke-width:0.59776002;stroke-linecap:butt;stroke-linejoin:miter;stroke-miterlimit:10;stroke-dasharray:none;stroke-opacity:1"
                           d="M 10.4001,1.60002 12.00015,0" />
                        <path
                           inkscape:connector-curvature="0"
                           id="path3533"
                           style="fill:none;stroke:#adade0;stroke-width:0.3985;stroke-linecap:butt;stroke-linejoin:miter;stroke-miterlimit:10;stroke-dasharray:none;stroke-opacity:1"
                           d="m 10.66016,2.49069 c 0,0.66027 -0.53526,1.19553 -1.19553,1.19553 -0.66028,0 -1.19554,-0.53526 -1.19554,-1.19553 0,-0.66028 0.53526,-1.19554 1.19554,-1.19554 0.66027,0 1.19553,0.53526 1.19553,1.19554 z" />
                        <path
                           inkscape:connector-curvature="0"
                           id="path3535"
                           style="fill:none;stroke:#adade0;stroke-width:0.3985;stroke-linecap:round;stroke-linejoin:miter;stroke-miterlimit:10;stroke-dasharray:none;stroke-opacity:1"
                           d="m 4.00005,0 c 1.08096,0 2.00001,0.9 2.00001,2.00002 0,1.1 -0.90001,2.00003 -2.00001,2.00003 -1.10004,0 -2.00003,-0.90003 -2.00003,-2.00003 m 1.20001,0.6 -1.20001,-1 -1.20002,1 M 16.0002,0 c -1.10004,0 -2.00003,0.9 -2.00003,2.00002 0,1.1 0.89999,2.00003 2.00003,2.00003 1.1,0 2.00001,-0.90003 2.00001,-2.00003 m 1.20002,0.6 -1.20002,-1 -1.20001,1" />
                      </g>
                    </g>
                  </g>
                  <g
                     transform="translate(-340.075,-12.121)"
                     id="g3537">
                    <text
                       id="text3545"
                       style="font-variant:normal;font-weight:normal;font-size:14.34619999px;font-family:LMSans12;-inkscape-font-specification:LMSans12-Regular;writing-mode:lr-tb;fill:#3333b3;fill-opacity:1;fill-rule:nonzero;stroke:none"
                       transform="matrix(1,0,0,-1,64.863,190.799)">
                      <tspan
                         id="tspan3539"
                         sodipodi:role="line"
                         y="0"
                         x="0 8.9749823 13.747964 19.99143 26.715494 32.958961">Creaci</tspan>
                      <tspan
                         id="tspan3541"
                         y="-0.034000002"
                         x="36.264">´</tspan>
                      <tspan
                         id="tspan3543"
                         sodipodi:role="line"
                         y="0"
                         x="36.264 43.287899 55.170856 62.376953 73.31163 80.517723 92.400681 101.68267 109.66059 124.1976 135.59853 142.80463 149.14134 153.91432 158.98714 162.29106 171.74091 178.94701 189.88167 197.08777 204.29387 215.69479 224.06293">ondeunAFNapartirdeunaER</tspan>
                    </text>
                    <text
                       id="text3555"
                       style="font-variant:normal;font-weight:normal;font-size:10.90909958px;font-family:LMSans10;-inkscape-font-specification:LMSans10-Regular;writing-mode:lr-tb;fill:#000000;fill-opacity:1;fill-rule:nonzero;stroke:none"
                       transform="matrix(1,0,0,-1,55.205,173.738)">
                      <tspan
                         id="tspan3547"
                         sodipodi:role="line"
                         y="0"
                         x="0 8.0301886 13.666921 22.148746 27.785479 32.732754 36.449486 45.334946 50.18404 55.638592 60.880413 66.517143 71.547333 77.184067 82.214249 87.15062 94.510986 99.360085 108.64046 111.24664 120.12119 124.97028 130.21211 132.8183 135.42447 141.27284 146.12193 151.36377 156.21286">Queparacoadyuvarenlacalifcaci</tspan>
                      <tspan
                         id="tspan3549"
                         y="0.029999999"
                         x="158.81799">´</tspan>
                      <tspan
                         id="tspan3551"
                         sodipodi:role="line"
                         y="0"
                         x="158.81799 164.27255 173.54201 179.17874 184.02783 190.27766 195.60893 199.33658 201.94276 210.60895 215.45805 222.81842 228.45515 233.39151 237.11916 241.96825 244.57443 249.81625">ondelprimerparcial</tspan>
                      <tspan
                         id="tspan3553"
                         sodipodi:role="line"
                         y="37.542"
                         x="108.576 115.8491 118.45528 124.09201 132.75821 138.39493">Alumno</tspan>
                    </text>
                    <text
                       id="text3563"
                       style="font-variant:normal;font-weight:normal;font-size:7.97009993px;font-family:LMSans8;-inkscape-font-specification:LMSans8-Regular;writing-mode:lr-tb;fill:#000000;fill-opacity:1;fill-rule:nonzero;stroke:none"
                       transform="matrix(1,0,0,-1,129.233,113.725)">
                      <tspan
                         id="tspan3557"
                         sodipodi:role="line"
                         y="0"
                         x="0 2.3519764 6.7243733 9.9705954 13.028723 15.049143 18.107269 22.479668 25.537794 32.593723 37.772694 42.00721 44.02763 46.04805">InstitutoPolit</tspan>
                      <tspan
                         id="tspan3559"
                         y="0.028000001"
                         x="48.868">´</tspan>
                      <tspan
                         id="tspan3561"
                         sodipodi:role="line"
                         y="0"
                         x="49.103001 52.866482 56.629963 61.002357 63.022781 66.786263 73.842194 79.819763 83.887703 87.651184 89.671608 93.90612 98.278519 102.34646">ecnicoNacional</tspan>
                    </text>
                    <text
                       id="text3567"
                       style="font-variant:normal;font-weight:normal;font-size:10.90909958px;font-family:LMSans10;-inkscape-font-specification:LMSans10-Regular;writing-mode:lr-tb;fill:#000000;fill-opacity:1;fill-rule:nonzero;stroke:none"
                       transform="matrix(1,0,0,-1,145.751,89.185)">
                      <tspan
                         id="tspan3565"
                         sodipodi:role="line"
                         y="0"
                         x="0 7.273097 12.727647 18.182198 22.363655 26.302931 35.390213 41.026943 49.519676 54.974228 60.428776 65.883331">Agostode2018</tspan>
                    </text>
                    <g
                       id="g3569">
                      <path
                         inkscape:connector-curvature="0"
                         id="path3571"
                         style="fill:#4747ba;fill-opacity:1;fill-rule:nonzero;stroke:none"
                         d="M 0,0 H 120.943 V 8.634 H 0 Z" />
                    </g>
                    <text
                       id="text3579"
                       style="font-variant:normal;font-weight:normal;font-size:5.9776001px;font-family:LMSans8;-inkscape-font-specification:LMSans8-Regular;writing-mode:lr-tb;fill:#ffffff;fill-opacity:1;fill-rule:nonzero;stroke:none"
                       transform="matrix(1,0,0,-1,6.482,2.657)">
                      <tspan
                         id="tspan3573"
                         sodipodi:role="line"
                         y="0"
                         x="0 4.2345319 5.7498536 9.0291653 14.073064 17.352375 24.760414 27.230358 29.000326 32.279636 34.714314 37.007919 38.523239 40.816845 44.096157 46.389763 51.681732 55.559998 58.735897 60.251221 61.766541">Alumno(InstitutoPolit</tspan>
                      <tspan
                         id="tspan3575"
                         y="0.021"
                         x="63.882999">´</tspan>
                      <tspan
                         id="tspan3577"
                         sodipodi:role="line"
                         y="0"
                         x="64.058998 66.881622 69.704247 72.983559 74.498878 77.321503 82.613472 87.096672 90.147636 92.970261 94.48558 97.661484 100.94079 103.99176 105.50708">ecnicoNacional)</tspan>
                    </text>
                    <g
                       transform="translate(120.943)"
                       id="g3581">
                      <path
                         inkscape:connector-curvature="0"
                         id="path3583"
                         style="fill:#8585d1;fill-opacity:1;fill-rule:nonzero;stroke:none"
                         d="M 0,0 H 120.943 V 8.634 H 0 Z" />
                    </g>
                    <text
                       id="text3591"
                       style="font-variant:normal;font-weight:normal;font-size:5.9776001px;font-family:LMSans8;-inkscape-font-specification:LMSans8-Regular;writing-mode:lr-tb;fill:#ffffff;fill-opacity:1;fill-rule:nonzero;stroke:none"
                       transform="matrix(1,0,0,-1,128.503,2.657)">
                      <tspan
                         id="tspan3585"
                         sodipodi:role="line"
                         y="0"
                         x="0 4.0575948 6.2268658 9.049489 12.100455 14.923079">Creaci</tspan>
                      <tspan
                         id="tspan3587"
                         y="0.021"
                         x="16.438">´</tspan>
                      <tspan
                         id="tspan3589"
                         sodipodi:role="line"
                         y="0"
                         x="16.438 19.613899 25.009281 28.288591 33.233261 36.512573 41.907955 46.142487 49.774479 56.373749 61.540787 64.820099 67.697716 69.866982 72.160591 73.675911 77.96125 81.240562 86.17926 89.458565 92.737877 97.904915 101.71384">ondeunAFNapartirdeunaER</tspan>
                    </text>
                    <g
                       transform="translate(241.886)"
                       id="g3593">
                      <path
                         inkscape:connector-curvature="0"
                         id="path3595"
                         style="fill:#adade0;fill-opacity:1;fill-rule:nonzero;stroke:none"
                         d="M 0,0 H 120.943 V 8.634 H 0 Z" />
                    </g>
                    <text
                       id="text3599"
                       style="font-variant:normal;font-weight:normal;font-size:5.9776001px;font-family:LMSans8;-inkscape-font-specification:LMSans8-Regular;writing-mode:lr-tb;fill:#000000;fill-opacity:1;fill-rule:nonzero;stroke:none"
                       transform="matrix(1,0,0,-1,289.524,2.657)">
                      <tspan
                         id="tspan3597"
                         sodipodi:role="line"
                         y="0"
                         x="0 4.2345319 7.4104309 10.586329 13.021006 15.314611 20.606581 23.885891 28.830563 32.006462 35.182362 38.358257 56.352627 60.586563 64.820496">Agostode20181/5</tspan>
                    </text>
                  </g>
                </g>
              </g>
            </g>
          </g>
        </g>
      </g>
    </g>
  </g>
</svg>
