<?xml version="1.0" encoding="UTF-8" standalone="no"?>
<!-- Created with Inkscape (http://www.inkscape.org/) -->

<svg
   xmlns:dc="http://purl.org/dc/elements/1.1/"
   xmlns:cc="http://creativecommons.org/ns#"
   xmlns:rdf="http://www.w3.org/1999/02/22-rdf-syntax-ns#"
   xmlns:svg="http://www.w3.org/2000/svg"
   xmlns="http://www.w3.org/2000/svg"
   xmlns:sodipodi="http://sodipodi.sourceforge.net/DTD/sodipodi-0.dtd"
   xmlns:inkscape="http://www.inkscape.org/namespaces/inkscape"
   width="396.36319mm"
   height="393.84525mm"
   viewBox="0 0 396.36319 393.84525"
   version="1.1"
   id="svg8"
   inkscape:version="0.92.3 (2405546, 2018-03-11)"
   sodipodi:docname="Presentacion1.svg">
  <defs
     id="defs2" />
  <sodipodi:namedview
     id="base"
     pagecolor="#ffffff"
     bordercolor="#666666"
     borderopacity="1.0"
     inkscape:pageopacity="0.0"
     inkscape:pageshadow="2"
     inkscape:zoom="0.35"
     inkscape:cx="733.31864"
     inkscape:cy="647.13157"
     inkscape:document-units="mm"
     inkscape:current-layer="layer1"
     showgrid="false"
     inkscape:window-width="1853"
     inkscape:window-height="1025"
     inkscape:window-x="67"
     inkscape:window-y="27"
     inkscape:window-maximized="1" />
  <metadata
     id="metadata5">
    <rdf:RDF>
      <cc:Work
         rdf:about="">
        <dc:format>image/svg+xml</dc:format>
        <dc:type
           rdf:resource="http://purl.org/dc/dcmitype/StillImage" />
        <dc:title />
      </cc:Work>
    </rdf:RDF>
  </metadata>
  <g
     inkscape:label="Capa 1"
     inkscape:groupmode="layer"
     id="layer1"
     transform="translate(356.55364,73.791669)">
    <g
       transform="matrix(1.0924062,0,0,-1.44729,-356.55364,320.05357)"
       inkscape:label="Presentacion1MMComp"
       id="g842">
      <g
         id="g844">
        <path
           inkscape:connector-curvature="0"
           id="path846"
           style="fill:#ffffff;fill-opacity:1;fill-rule:nonzero;stroke:none"
           d="M 0,0 H 362.835 V 272.126 H 0 Z" />
      </g>
      <g
         transform="translate(233.391,12.121)"
         id="g848">
        <g
           id="g850">
          <g
             id="g852" />
          <g
             id="g854">
            <path
               inkscape:connector-curvature="0"
               id="path856"
               style="fill:none;stroke:#adade0;stroke-width:0.3985;stroke-linecap:butt;stroke-linejoin:miter;stroke-miterlimit:10;stroke-dasharray:none;stroke-opacity:1"
               d="m 8.26909,0.79701 h 3.38733 V 3.18806 H 8.26909 Z" />
          </g>
          <g
             id="g858">
            <path
               inkscape:connector-curvature="0"
               id="path860"
               style="fill:#d6d6f0;fill-opacity:1;fill-rule:nonzero;stroke:none"
               d="M 4.00005,0.49998 2.00002,2.00002 4.00005,3.50003" />
            <path
               inkscape:connector-curvature="0"
               id="path862"
               style="fill:#d6d6f0;fill-opacity:1;fill-rule:nonzero;stroke:none"
               d="M 16.0002,0.49998 18.00021,2.00002 16.0002,3.50003" />
          </g>
        </g>
        <g
           transform="translate(21.337)"
           id="g864">
          <g
             id="g866">
            <g
               id="g868" />
            <g
               id="g870">
              <path
                 inkscape:connector-curvature="0"
                 id="path872"
                 style="fill:none;stroke:#adade0;stroke-width:0.3985;stroke-linecap:butt;stroke-linejoin:miter;stroke-miterlimit:10;stroke-dasharray:none;stroke-opacity:1"
                 d="m 6.97394,0 h 3.38733 V 2.39105 H 6.97394 Z m 0.82614,2.40001 v 0.80002 h 3.40004 V 0.8 H 10.4001 m -1.8,2.40003 v 0.80002 h 3.40005 V 1.60002 h -0.80003" />
            </g>
            <g
               id="g874">
              <path
                 inkscape:connector-curvature="0"
                 id="path876"
                 style="fill:#d6d6f0;fill-opacity:1;fill-rule:nonzero;stroke:none"
                 d="M 4.00005,0.49998 2.00002,2.00002 4.00005,3.50003 M 16.0002,0.49998 18.00021,2.00002 16.0002,3.50003" />
            </g>
          </g>
          <g
             transform="translate(21.337)"
             id="g878">
            <g
               id="g880">
              <g
                 id="g882" />
              <g
                 id="g884">
                <path
                   inkscape:connector-curvature="0"
                   id="path886"
                   style="fill:none;stroke:#adade0;stroke-width:0.59776002;stroke-linecap:butt;stroke-linejoin:miter;stroke-miterlimit:10;stroke-dasharray:none;stroke-opacity:1"
                   d="m 9.00009,3.00003 h 3.00006" />
              </g>
              <g
                 id="g888">
                <path
                   inkscape:connector-curvature="0"
                   id="path890"
                   style="fill:#d6d6f0;fill-opacity:1;fill-rule:nonzero;stroke:none"
                   d="M 4.00005,0.49998 2.00002,2.00002 4.00005,3.50003 M 16.0002,0.49998 18.00021,2.00002 16.0002,3.50003" />
                <path
                   inkscape:connector-curvature="0"
                   id="path892"
                   style="fill:none;stroke:#d6d6f0;stroke-width:0.59776002;stroke-linecap:butt;stroke-linejoin:miter;stroke-miterlimit:10;stroke-dasharray:none;stroke-opacity:1"
                   d="m 8.00009,4.00005 h 3.00003 M 9.00009,2.00002 h 3.00006 M 8.00009,1 h 3.00003 M 9.00009,0 h 3.00006" />
              </g>
            </g>
            <g
               transform="translate(21.336)"
               id="g894">
              <g
                 id="g896">
                <g
                   id="g898" />
                <g
                   id="g900">
                  <path
                     inkscape:connector-curvature="0"
                     id="path902"
                     style="fill:none;stroke:#adade0;stroke-width:0.59776002;stroke-linecap:butt;stroke-linejoin:miter;stroke-miterlimit:10;stroke-dasharray:none;stroke-opacity:1"
                     d="m 8.00009,4.00005 h 3.00003 M 9.00009,3.00003 h 3.00006 M 9.00009,2.00002 h 3.00006" />
                </g>
                <g
                   id="g904">
                  <path
                     inkscape:connector-curvature="0"
                     id="path906"
                     style="fill:#d6d6f0;fill-opacity:1;fill-rule:nonzero;stroke:none"
                     d="M 4.00005,0.49998 2.00002,2.00002 4.00005,3.50003 M 16.0002,0.49998 18.00021,2.00002 16.0002,3.50003" />
                  <path
                     inkscape:connector-curvature="0"
                     id="path908"
                     style="fill:none;stroke:#d6d6f0;stroke-width:0.59776002;stroke-linecap:butt;stroke-linejoin:miter;stroke-miterlimit:10;stroke-dasharray:none;stroke-opacity:1"
                     d="m 8.00009,1 h 3.00003 M 9.00009,0 h 3.00006" />
                </g>
              </g>
              <g
                 transform="translate(21.337)"
                 id="g910">
                <g
                   id="g912">
                  <g
                     id="g914" />
                  <g
                     id="g916">
                    <path
                       inkscape:connector-curvature="0"
                       id="path918"
                       style="fill:none;stroke:#adade0;stroke-width:0.59776002;stroke-linecap:butt;stroke-linejoin:miter;stroke-miterlimit:10;stroke-dasharray:none;stroke-opacity:1"
                       d="m 8.00009,4.00005 h 3.00003 M 9.00009,3.00003 h 3.00006 M 9.00009,2.00002 h 3.00006 M 8.00009,1 h 3.00003 M 9.00009,0 h 3.00006" />
                  </g>
                </g>
                <g
                   transform="translate(21.337)"
                   id="g920">
                  <g
                     id="g922">
                    <g
                       id="g924" />
                    <g
                       id="g926">
                      <path
                         inkscape:connector-curvature="0"
                         id="path928"
                         style="fill:none;stroke:#adade0;stroke-width:0.59776002;stroke-linecap:butt;stroke-linejoin:miter;stroke-miterlimit:10;stroke-dasharray:none;stroke-opacity:1"
                         d="M 10.4001,1.60002 12.00015,0" />
                      <path
                         inkscape:connector-curvature="0"
                         id="path930"
                         style="fill:none;stroke:#adade0;stroke-width:0.3985;stroke-linecap:butt;stroke-linejoin:miter;stroke-miterlimit:10;stroke-dasharray:none;stroke-opacity:1"
                         d="m 10.66016,2.49069 c 0,0.66027 -0.53526,1.19553 -1.19553,1.19553 -0.66028,0 -1.19554,-0.53526 -1.19554,-1.19553 0,-0.66028 0.53526,-1.19554 1.19554,-1.19554 0.66027,0 1.19553,0.53526 1.19553,1.19554 z" />
                      <path
                         inkscape:connector-curvature="0"
                         id="path932"
                         style="fill:none;stroke:#adade0;stroke-width:0.3985;stroke-linecap:round;stroke-linejoin:miter;stroke-miterlimit:10;stroke-dasharray:none;stroke-opacity:1"
                         d="m 4.00005,0 c 1.08096,0 2.00001,0.9 2.00001,2.00002 0,1.1 -0.90001,2.00003 -2.00001,2.00003 -1.10004,0 -2.00003,-0.90003 -2.00003,-2.00003 m 1.20001,0.6 -1.20001,-1 -1.20002,1 M 16.0002,0 c -1.10004,0 -2.00003,0.9 -2.00003,2.00002 0,1.1 0.89999,2.00003 2.00003,2.00003 1.1,0 2.00001,-0.90003 2.00001,-2.00003 m 1.20002,0.6 -1.20002,-1 -1.20001,1" />
                    </g>
                  </g>
                  <g
                     transform="translate(-340.075,-12.121)"
                     id="g934">
                    <text
                       id="text942"
                       style="font-variant:normal;font-weight:normal;font-size:14.34619999px;font-family:LMSans12;-inkscape-font-specification:LMSans12-Regular;writing-mode:lr-tb;fill:#3333b3;fill-opacity:1;fill-rule:nonzero;stroke:none"
                       transform="matrix(1,0,0,-1,89.237,190.799)">
                      <tspan
                         id="tspan936"
                         sodipodi:role="line"
                         y="0"
                         x="0 3.8189585 11.025055 16.097872 20.870852 28.282099 35.488194 42.69429 48.937756 55.181225">Introducci</tspan>
                      <tspan
                         id="tspan938"
                         y="-0.034000002"
                         x="58.490002">´</tspan>
                      <tspan
                         id="tspan940"
                         sodipodi:role="line"
                         y="0"
                         x="58.490002 65.513901 77.396858 88.812126 92.116058 99.139961 109.20095 115.44441 122.46832 133.57657 140.78267 144.08661 147.39053 154.11459 161.32069 167.95724 172.73022 178.97369">onaloscompiladores</tspan>
                    </text>
                    <text
                       id="text952"
                       style="font-variant:normal;font-weight:normal;font-size:10.90909958px;font-family:LMSans10;-inkscape-font-specification:LMSans10-Regular;writing-mode:lr-tb;fill:#000000;fill-opacity:1;fill-rule:nonzero;stroke:none"
                       transform="matrix(1,0,0,-1,67.993,173.738)">
                      <tspan
                         id="tspan944"
                         sodipodi:role="line"
                         y="0"
                         x="0 8.0301886 13.666921 22.148746 27.785479 32.721844 36.449486 45.334946 50.789497 56.426228 60.365505 65.2146 70.851334 75.700424 83.060799 85.666977 94.541534 99.390625 104.63245 107.23863 109.84482 115.69318 120.54228 125.7841 130.63319">Queparaobtenerlacalifcaci</tspan>
                      <tspan
                         id="tspan946"
                         y="0.029999999"
                         x="133.242">´</tspan>
                      <tspan
                         id="tspan948"
                         sodipodi:role="line"
                         y="0"
                         x="133.242 138.69655 147.96602 153.60274 158.45184 164.70166 170.03294 173.76057 176.36676 185.03296 189.88205 197.24242 202.87915 207.81552 211.54315 216.39226 218.99843 224.24026">ondelprimerparcial</tspan>
                      <tspan
                         id="tspan950"
                         sodipodi:role="line"
                         y="37.542"
                         x="95.788002 103.0611 105.66728 111.30402 119.9702 125.60693">Alumno</tspan>
                    </text>
                    <text
                       id="text960"
                       style="font-variant:normal;font-weight:normal;font-size:7.97009993px;font-family:LMSans8;-inkscape-font-specification:LMSans8-Regular;writing-mode:lr-tb;fill:#000000;fill-opacity:1;fill-rule:nonzero;stroke:none"
                       transform="matrix(1,0,0,-1,129.233,113.725)">
                      <tspan
                         id="tspan954"
                         sodipodi:role="line"
                         y="0"
                         x="0 2.3519764 6.7243733 9.9705954 13.028723 15.049143 18.107269 22.479668 25.537794 32.593723 37.772694 42.00721 44.02763 46.04805">InstitutoPolit</tspan>
                      <tspan
                         id="tspan956"
                         y="0.028000001"
                         x="48.868">´</tspan>
                      <tspan
                         id="tspan958"
                         sodipodi:role="line"
                         y="0"
                         x="49.103001 52.866482 56.629963 61.002357 63.022781 66.786263 73.842194 79.819763 83.887703 87.651184 89.671608 93.90612 98.278519 102.34646">ecnicoNacional</tspan>
                    </text>
                    <text
                       id="text964"
                       style="font-variant:normal;font-weight:normal;font-size:10.90909958px;font-family:LMSans10;-inkscape-font-specification:LMSans10-Regular;writing-mode:lr-tb;fill:#000000;fill-opacity:1;fill-rule:nonzero;stroke:none"
                       transform="matrix(1,0,0,-1,145.751,89.185)">
                      <tspan
                         id="tspan962"
                         sodipodi:role="line"
                         y="0"
                         x="0 7.273097 12.727647 18.182198 22.363655 26.302931 35.390213 41.026943 49.519676 54.974228 60.428776 65.883331">Agostode2018</tspan>
                    </text>
                    <g
                       id="g966">
                      <path
                         inkscape:connector-curvature="0"
                         id="path968"
                         style="fill:#4747ba;fill-opacity:1;fill-rule:nonzero;stroke:none"
                         d="M 0,0 H 120.943 V 8.634 H 0 Z" />
                    </g>
                    <text
                       id="text976"
                       style="font-variant:normal;font-weight:normal;font-size:5.9776001px;font-family:LMSans8;-inkscape-font-specification:LMSans8-Regular;writing-mode:lr-tb;fill:#ffffff;fill-opacity:1;fill-rule:nonzero;stroke:none"
                       transform="matrix(1,0,0,-1,6.482,2.657)">
                      <tspan
                         id="tspan970"
                         sodipodi:role="line"
                         y="0"
                         x="0 4.2345319 5.7498536 9.0291653 14.073064 17.352375 24.760414 27.230358 29.000326 32.279636 34.714314 37.007919 38.523239 40.816845 44.096157 46.389763 51.681732 55.559998 58.735897 60.251221 61.766541">Alumno(InstitutoPolit</tspan>
                      <tspan
                         id="tspan972"
                         y="0.021"
                         x="63.882999">´</tspan>
                      <tspan
                         id="tspan974"
                         sodipodi:role="line"
                         y="0"
                         x="64.058998 66.881622 69.704247 72.983559 74.498878 77.321503 82.613472 87.096672 90.147636 92.970261 94.48558 97.661484 100.94079 103.99176 105.50708">ecnicoNacional)</tspan>
                    </text>
                    <g
                       transform="translate(120.943)"
                       id="g978">
                      <path
                         inkscape:connector-curvature="0"
                         id="path980"
                         style="fill:#8585d1;fill-opacity:1;fill-rule:nonzero;stroke:none"
                         d="M 0,0 H 120.943 V 8.634 H 0 Z" />
                    </g>
                    <text
                       id="text988"
                       style="font-variant:normal;font-weight:normal;font-size:5.9776001px;font-family:LMSans8;-inkscape-font-specification:LMSans8-Regular;writing-mode:lr-tb;fill:#ffffff;fill-opacity:1;fill-rule:nonzero;stroke:none"
                       transform="matrix(1,0,0,-1,139.58,2.657)">
                      <tspan
                         id="tspan982"
                         sodipodi:role="line"
                         y="0"
                         x="0 1.7639898 5.0433011 7.3369064 9.5061769 12.861404 16.140715 19.420027 22.242649 25.065271">Introducci</tspan>
                      <tspan
                         id="tspan984"
                         y="0.021"
                         x="26.577999">´</tspan>
                      <tspan
                         id="tspan986"
                         sodipodi:role="line"
                         y="0"
                         x="26.577999 29.753899 35.149281 40.316319 41.831638 45.007538 49.564262 52.386887 55.562786 60.606682 63.885994 65.401314 66.916641 69.967606 73.246918 76.243484 78.412758 81.235382">onaloscompiladores</tspan>
                    </text>
                    <g
                       transform="translate(241.886)"
                       id="g990">
                      <path
                         inkscape:connector-curvature="0"
                         id="path992"
                         style="fill:#adade0;fill-opacity:1;fill-rule:nonzero;stroke:none"
                         d="M 0,0 H 120.943 V 8.634 H 0 Z" />
                    </g>
                    <text
                       id="text996"
                       style="font-variant:normal;font-weight:normal;font-size:5.9776001px;font-family:LMSans8;-inkscape-font-specification:LMSans8-Regular;writing-mode:lr-tb;fill:#000000;fill-opacity:1;fill-rule:nonzero;stroke:none"
                       transform="matrix(1,0,0,-1,287.407,2.657)">
                      <tspan
                         id="tspan994"
                         sodipodi:role="line"
                         y="0"
                         x="0 4.2345319 7.4104309 10.586329 13.021006 15.314611 20.606581 23.885891 28.830563 32.006462 35.182362 38.358257 56.352627 61.644596 66.936569">Agostode20181/8</tspan>
                    </text>
                  </g>
                </g>
              </g>
            </g>
          </g>
        </g>
      </g>
    </g>
  </g>
</svg>
