<?xml version="1.0" encoding="UTF-8" standalone="no"?>
<!-- Created with Inkscape (http://www.inkscape.org/) -->

<svg
   xmlns:dc="http://purl.org/dc/elements/1.1/"
   xmlns:cc="http://creativecommons.org/ns#"
   xmlns:rdf="http://www.w3.org/1999/02/22-rdf-syntax-ns#"
   xmlns:svg="http://www.w3.org/2000/svg"
   xmlns="http://www.w3.org/2000/svg"
   xmlns:sodipodi="http://sodipodi.sourceforge.net/DTD/sodipodi-0.dtd"
   xmlns:inkscape="http://www.inkscape.org/namespaces/inkscape"
   width="391.07153mm"
   height="392.33334mm"
   viewBox="0 0 391.07153 392.33334"
   version="1.1"
   id="svg4575"
   inkscape:version="0.92.3 (2405546, 2018-03-11)"
   sodipodi:docname="Presentacion8.svg">
  <defs
     id="defs4569" />
  <sodipodi:namedview
     id="base"
     pagecolor="#ffffff"
     bordercolor="#666666"
     borderopacity="1.0"
     inkscape:pageopacity="0.0"
     inkscape:pageshadow="2"
     inkscape:zoom="0.35"
     inkscape:cx="-113.82428"
     inkscape:cy="555.70306"
     inkscape:document-units="mm"
     inkscape:current-layer="layer1"
     showgrid="false"
     inkscape:window-width="1853"
     inkscape:window-height="1025"
     inkscape:window-x="67"
     inkscape:window-y="27"
     inkscape:window-maximized="1" />
  <metadata
     id="metadata4572">
    <rdf:RDF>
      <cc:Work
         rdf:about="">
        <dc:format>image/svg+xml</dc:format>
        <dc:type
           rdf:resource="http://purl.org/dc/dcmitype/StillImage" />
        <dc:title></dc:title>
      </cc:Work>
    </rdf:RDF>
  </metadata>
  <g
     inkscape:label="Capa 1"
     inkscape:groupmode="layer"
     id="layer1"
     transform="translate(-1.7677943,96.470234)">
    <g
       transform="matrix(1.077822,0,0,-1.4417341,1.7677943,295.8631)"
       inkscape:label="Presentacion8MMComp"
       id="g5147">
      <g
         id="g5149">
        <path
           inkscape:connector-curvature="0"
           id="path5151"
           style="fill:#ffffff;fill-opacity:1;fill-rule:nonzero;stroke:none"
           d="M 0,0 H 362.835 V 272.126 H 0 Z" />
      </g>
      <g
         transform="translate(233.391,12.121)"
         id="g5153">
        <g
           id="g5155">
          <g
             id="g5157" />
          <g
             id="g5159">
            <g
               id="g5161">
              <path
                 inkscape:connector-curvature="0"
                 id="path5163"
                 style="fill:none;stroke:#adade0;stroke-width:0.3985;stroke-linecap:butt;stroke-linejoin:miter;stroke-miterlimit:10;stroke-dasharray:none;stroke-opacity:1"
                 d="m 8.26909,0.79701 h 3.38733 V 3.18806 H 8.26909 Z" />
            </g>
          </g>
          <g
             id="g5165">
            <g
               id="g5167">
              <path
                 inkscape:connector-curvature="0"
                 id="path5169"
                 style="fill:#d6d6f0;fill-opacity:1;fill-rule:nonzero;stroke:none"
                 d="M 4.00005,0.49998 2.00002,2.00002 4.00005,3.50003" />
              <path
                 inkscape:connector-curvature="0"
                 id="path5171"
                 style="fill:#d6d6f0;fill-opacity:1;fill-rule:nonzero;stroke:none"
                 d="M 16.0002,0.49998 18.00021,2.00002 16.0002,3.50003" />
            </g>
          </g>
        </g>
        <g
           transform="translate(21.337)"
           id="g5173">
          <g
             id="g5175">
            <g
               id="g5177" />
            <g
               id="g5179">
              <g
                 id="g5181">
                <path
                   inkscape:connector-curvature="0"
                   id="path5183"
                   style="fill:none;stroke:#adade0;stroke-width:0.3985;stroke-linecap:butt;stroke-linejoin:miter;stroke-miterlimit:10;stroke-dasharray:none;stroke-opacity:1"
                   d="m 6.97394,0 h 3.38733 V 2.39105 H 6.97394 Z m 0.82614,2.40001 v 0.80002 h 3.40004 V 0.8 H 10.4001 m -1.8,2.40003 v 0.80002 h 3.40005 V 1.60002 h -0.80003" />
              </g>
            </g>
            <g
               id="g5185">
              <g
                 id="g5187">
                <path
                   inkscape:connector-curvature="0"
                   id="path5189"
                   style="fill:#d6d6f0;fill-opacity:1;fill-rule:nonzero;stroke:none"
                   d="M 4.00005,0.49998 2.00002,2.00002 4.00005,3.50003 M 16.0002,0.49998 18.00021,2.00002 16.0002,3.50003" />
              </g>
            </g>
          </g>
          <g
             transform="translate(21.337)"
             id="g5191">
            <g
               id="g5193">
              <g
                 id="g5195" />
              <g
                 id="g5197">
                <g
                   id="g5199">
                  <path
                     inkscape:connector-curvature="0"
                     id="path5201"
                     style="fill:none;stroke:#adade0;stroke-width:0.59776002;stroke-linecap:butt;stroke-linejoin:miter;stroke-miterlimit:10;stroke-dasharray:none;stroke-opacity:1"
                     d="m 9.00009,3.00003 h 3.00006" />
                </g>
              </g>
              <g
                 id="g5203">
                <g
                   id="g5205">
                  <path
                     inkscape:connector-curvature="0"
                     id="path5207"
                     style="fill:#d6d6f0;fill-opacity:1;fill-rule:nonzero;stroke:none"
                     d="M 4.00005,0.49998 2.00002,2.00002 4.00005,3.50003 M 16.0002,0.49998 18.00021,2.00002 16.0002,3.50003" />
                  <path
                     inkscape:connector-curvature="0"
                     id="path5209"
                     style="fill:none;stroke:#d6d6f0;stroke-width:0.59776002;stroke-linecap:butt;stroke-linejoin:miter;stroke-miterlimit:10;stroke-dasharray:none;stroke-opacity:1"
                     d="m 8.00009,4.00005 h 3.00003 M 9.00009,2.00002 h 3.00006 M 8.00009,1 h 3.00003 M 9.00009,0 h 3.00006" />
                </g>
              </g>
            </g>
            <g
               transform="translate(21.336)"
               id="g5211">
              <g
                 id="g5213">
                <g
                   id="g5215" />
                <g
                   id="g5217">
                  <g
                     id="g5219">
                    <path
                       inkscape:connector-curvature="0"
                       id="path5221"
                       style="fill:none;stroke:#adade0;stroke-width:0.59776002;stroke-linecap:butt;stroke-linejoin:miter;stroke-miterlimit:10;stroke-dasharray:none;stroke-opacity:1"
                       d="m 8.00009,4.00005 h 3.00003 M 9.00009,3.00003 h 3.00006 M 9.00009,2.00002 h 3.00006" />
                  </g>
                </g>
                <g
                   id="g5223">
                  <g
                     id="g5225">
                    <path
                       inkscape:connector-curvature="0"
                       id="path5227"
                       style="fill:#d6d6f0;fill-opacity:1;fill-rule:nonzero;stroke:none"
                       d="M 4.00005,0.49998 2.00002,2.00002 4.00005,3.50003 M 16.0002,0.49998 18.00021,2.00002 16.0002,3.50003" />
                    <path
                       inkscape:connector-curvature="0"
                       id="path5229"
                       style="fill:none;stroke:#d6d6f0;stroke-width:0.59776002;stroke-linecap:butt;stroke-linejoin:miter;stroke-miterlimit:10;stroke-dasharray:none;stroke-opacity:1"
                       d="m 8.00009,1 h 3.00003 M 9.00009,0 h 3.00006" />
                  </g>
                </g>
              </g>
              <g
                 transform="translate(21.337)"
                 id="g5231">
                <g
                   id="g5233">
                  <g
                     id="g5235" />
                  <g
                     id="g5237">
                    <g
                       id="g5239">
                      <path
                         inkscape:connector-curvature="0"
                         id="path5241"
                         style="fill:none;stroke:#adade0;stroke-width:0.59776002;stroke-linecap:butt;stroke-linejoin:miter;stroke-miterlimit:10;stroke-dasharray:none;stroke-opacity:1"
                         d="m 8.00009,4.00005 h 3.00003 M 9.00009,3.00003 h 3.00006 M 9.00009,2.00002 h 3.00006 M 8.00009,1 h 3.00003 M 9.00009,0 h 3.00006" />
                    </g>
                  </g>
                </g>
                <g
                   transform="translate(21.337)"
                   id="g5243">
                  <g
                     id="g5245">
                    <g
                       id="g5247" />
                    <g
                       id="g5249">
                      <g
                         id="g5251">
                        <path
                           inkscape:connector-curvature="0"
                           id="path5253"
                           style="fill:none;stroke:#adade0;stroke-width:0.59776002;stroke-linecap:butt;stroke-linejoin:miter;stroke-miterlimit:10;stroke-dasharray:none;stroke-opacity:1"
                           d="M 10.4001,1.60002 12.00015,0" />
                        <path
                           inkscape:connector-curvature="0"
                           id="path5255"
                           style="fill:none;stroke:#adade0;stroke-width:0.3985;stroke-linecap:butt;stroke-linejoin:miter;stroke-miterlimit:10;stroke-dasharray:none;stroke-opacity:1"
                           d="m 10.66016,2.49069 c 0,0.66027 -0.53526,1.19553 -1.19553,1.19553 -0.66028,0 -1.19554,-0.53526 -1.19554,-1.19553 0,-0.66028 0.53526,-1.19554 1.19554,-1.19554 0.66027,0 1.19553,0.53526 1.19553,1.19554 z" />
                        <path
                           inkscape:connector-curvature="0"
                           id="path5257"
                           style="fill:none;stroke:#adade0;stroke-width:0.3985;stroke-linecap:round;stroke-linejoin:miter;stroke-miterlimit:10;stroke-dasharray:none;stroke-opacity:1"
                           d="m 4.00005,0 c 1.08096,0 2.00001,0.9 2.00001,2.00002 0,1.1 -0.90001,2.00003 -2.00001,2.00003 -1.10004,0 -2.00003,-0.90003 -2.00003,-2.00003 m 1.20001,0.6 -1.20001,-1 -1.20002,1 M 16.0002,0 c -1.10004,0 -2.00003,0.9 -2.00003,2.00002 0,1.1 0.89999,2.00003 2.00003,2.00003 1.1,0 2.00001,-0.90003 2.00001,-2.00003 m 1.20002,0.6 -1.20002,-1 -1.20001,1" />
                      </g>
                    </g>
                  </g>
                  <g
                     transform="translate(-340.075,-12.121)"
                     id="g5259">
                    <text
                       id="text5271"
                       style="font-variant:normal;font-weight:normal;font-size:14.34619999px;font-family:LMSans12;-inkscape-font-specification:LMSans12-Regular;writing-mode:lr-tb;fill:#3333b3;fill-opacity:1;fill-rule:nonzero;stroke:none"
                       transform="matrix(1,0,0,-1,41.647,190.799)">
                      <tspan
                         id="tspan5261"
                         sodipodi:role="line"
                         y="0"
                         x="0 8.9749823 15.998882 23.204979 28.589108 33.661922 38.434906 45.640999 51.884468 58.127934">Construcci</tspan>
                      <tspan
                         id="tspan5263"
                         y="-0.034000002"
                         x="61.432999">´</tspan>
                      <tspan
                         id="tspan5265"
                         sodipodi:role="line"
                         y="0"
                         x="61.432999 68.456902 80.339859 87.545952 98.480629 105.68672 117.56968 124.29375 131.49985 138.22391 141.52783 144.83177 150.92459 157.66301 164.86909 171.4913 180.95549">ondeunanalizadorl</tspan>
                      <tspan
                         id="tspan5267"
                         y="-0.034000002"
                         x="183.866">´</tspan>
                      <tspan
                         id="tspan5269"
                         sodipodi:role="line"
                         y="0"
                         x="184.256 190.49947 196.92513 200.22906 206.47252 218.17328 225.37938 236.31406 243.52016 250.72624 262.12717 270.4953">exicodeunaER</tspan>
                    </text>
                    <text
                       id="text5281"
                       style="font-variant:normal;font-weight:normal;font-size:10.90909958px;font-family:LMSans10;-inkscape-font-specification:LMSans10-Regular;writing-mode:lr-tb;fill:#000000;fill-opacity:1;fill-rule:nonzero;stroke:none"
                       transform="matrix(1,0,0,-1,55.205,173.738)">
                      <tspan
                         id="tspan5273"
                         sodipodi:role="line"
                         y="0"
                         x="0 8.0301886 13.666921 22.148746 27.785479 32.732754 36.449486 45.334946 50.18404 55.638592 60.880413 66.517143 71.547333 77.184067 82.214249 87.15062 94.510986 99.360085 108.64046 111.24664 120.12119 124.97028 130.21211 132.8183 135.42447 141.27284 146.12193 151.36377 156.21286">Queparacoadyuvarenlacalifcaci</tspan>
                      <tspan
                         id="tspan5275"
                         y="0.029999999"
                         x="158.81799">´</tspan>
                      <tspan
                         id="tspan5277"
                         sodipodi:role="line"
                         y="0"
                         x="158.81799 164.27255 173.54201 179.17874 184.02783 190.27766 195.60893 199.33658 201.94276 210.60895 215.45805 222.81842 228.45515 233.39151 237.11916 241.96825 244.57443 249.81625">ondelprimerparcial</tspan>
                      <tspan
                         id="tspan5279"
                         sodipodi:role="line"
                         y="37.542"
                         x="108.576 115.8491 118.45528 124.09201 132.75821 138.39493">Alumno</tspan>
                    </text>
                    <text
                       id="text5289"
                       style="font-variant:normal;font-weight:normal;font-size:7.97009993px;font-family:LMSans8;-inkscape-font-specification:LMSans8-Regular;writing-mode:lr-tb;fill:#000000;fill-opacity:1;fill-rule:nonzero;stroke:none"
                       transform="matrix(1,0,0,-1,129.233,113.725)">
                      <tspan
                         id="tspan5283"
                         sodipodi:role="line"
                         y="0"
                         x="0 2.3519764 6.7243733 9.9705954 13.028723 15.049143 18.107269 22.479668 25.537794 32.593723 37.772694 42.00721 44.02763 46.04805">InstitutoPolit</tspan>
                      <tspan
                         id="tspan5285"
                         y="0.028000001"
                         x="48.868">´</tspan>
                      <tspan
                         id="tspan5287"
                         sodipodi:role="line"
                         y="0"
                         x="49.103001 52.866482 56.629963 61.002357 63.022781 66.786263 73.842194 79.819763 83.887703 87.651184 89.671608 93.90612 98.278519 102.34646">ecnicoNacional</tspan>
                    </text>
                    <text
                       id="text5293"
                       style="font-variant:normal;font-weight:normal;font-size:10.90909958px;font-family:LMSans10;-inkscape-font-specification:LMSans10-Regular;writing-mode:lr-tb;fill:#000000;fill-opacity:1;fill-rule:nonzero;stroke:none"
                       transform="matrix(1,0,0,-1,145.751,89.185)">
                      <tspan
                         id="tspan5291"
                         sodipodi:role="line"
                         y="0"
                         x="0 7.273097 12.727647 18.182198 22.363655 26.302931 35.390213 41.026943 49.519676 54.974228 60.428776 65.883331">Agostode2018</tspan>
                    </text>
                    <g
                       id="g5295">
                      <path
                         inkscape:connector-curvature="0"
                         id="path5297"
                         style="fill:#4747ba;fill-opacity:1;fill-rule:nonzero;stroke:none"
                         d="M 0,0 H 120.943 V 8.634 H 0 Z" />
                    </g>
                    <text
                       id="text5305"
                       style="font-variant:normal;font-weight:normal;font-size:5.9776001px;font-family:LMSans8;-inkscape-font-specification:LMSans8-Regular;writing-mode:lr-tb;fill:#ffffff;fill-opacity:1;fill-rule:nonzero;stroke:none"
                       transform="matrix(1,0,0,-1,6.482,2.657)">
                      <tspan
                         id="tspan5299"
                         sodipodi:role="line"
                         y="0"
                         x="0 4.2345319 5.7498536 9.0291653 14.073064 17.352375 24.760414 27.230358 29.000326 32.279636 34.714314 37.007919 38.523239 40.816845 44.096157 46.389763 51.681732 55.559998 58.735897 60.251221 61.766541">Alumno(InstitutoPolit</tspan>
                      <tspan
                         id="tspan5301"
                         y="0.021"
                         x="63.882999">´</tspan>
                      <tspan
                         id="tspan5303"
                         sodipodi:role="line"
                         y="0"
                         x="64.058998 66.881622 69.704247 72.983559 74.498878 77.321503 82.613472 87.096672 90.147636 92.970261 94.48558 97.661484 100.94079 103.99176 105.50708">ecnicoNacional)</tspan>
                    </text>
                    <g
                       transform="translate(120.943)"
                       id="g5307">
                      <path
                         inkscape:connector-curvature="0"
                         id="path5309"
                         style="fill:#8585d1;fill-opacity:1;fill-rule:nonzero;stroke:none"
                         d="M 0,0 H 120.943 V 8.634 H 0 Z" />
                    </g>
                    <text
                       id="text5321"
                       style="font-variant:normal;font-weight:normal;font-size:5.9776001px;font-family:LMSans8;-inkscape-font-specification:LMSans8-Regular;writing-mode:lr-tb;fill:#ffffff;fill-opacity:1;fill-rule:nonzero;stroke:none"
                       transform="matrix(1,0,0,-1,120.943,2.657)">
                      <tspan
                         id="tspan5311"
                         sodipodi:role="line"
                         y="0"
                         x="0 4.0575948 7.2334938 10.512805 12.947481 15.241087 17.410358 20.689669 23.512291 26.334915">Construcci</tspan>
                      <tspan
                         id="tspan5313"
                         y="0.021"
                         x="27.85">´</tspan>
                      <tspan
                         id="tspan5315"
                         sodipodi:role="line"
                         y="0"
                         x="27.85 31.025898 36.42128 39.700592 44.645264 47.924576 53.319958 56.370922 59.650234 62.701202 64.216522 65.731842 68.492302 71.543266 74.822578 77.819153 82.110466">ondeunanalizadorl</tspan>
                      <tspan
                         id="tspan5317"
                         y="0.021"
                         x="83.445">´</tspan>
                      <tspan
                         id="tspan5319"
                         sodipodi:role="line"
                         y="0"
                         x="83.621002 86.443626 89.370255 90.885574 93.708199 99.000168 102.27948 107.22415 110.50346 113.78278 118.94981 122.75874">exicodeunaER</tspan>
                    </text>
                    <g
                       transform="translate(241.886)"
                       id="g5323">
                      <path
                         inkscape:connector-curvature="0"
                         id="path5325"
                         style="fill:#adade0;fill-opacity:1;fill-rule:nonzero;stroke:none"
                         d="M 0,0 H 120.943 V 8.634 H 0 Z" />
                    </g>
                    <text
                       id="text5329"
                       style="font-variant:normal;font-weight:normal;font-size:5.9776001px;font-family:LMSans8;-inkscape-font-specification:LMSans8-Regular;writing-mode:lr-tb;fill:#000000;fill-opacity:1;fill-rule:nonzero;stroke:none"
                       transform="matrix(1,0,0,-1,289.524,2.657)">
                      <tspan
                         id="tspan5327"
                         sodipodi:role="line"
                         y="0"
                         x="0 4.2345319 7.4104309 10.586329 13.021006 15.314611 20.606581 23.885891 28.830563 32.006462 35.182362 38.358257 56.352627 60.586563 64.820496">Agostode20181/7</tspan>
                    </text>
                  </g>
                </g>
              </g>
            </g>
          </g>
        </g>
      </g>
    </g>
  </g>
</svg>
