<?xml version="1.0" encoding="UTF-8" standalone="no"?>
<!-- Created with Inkscape (http://www.inkscape.org/) -->

<svg
   xmlns:dc="http://purl.org/dc/elements/1.1/"
   xmlns:cc="http://creativecommons.org/ns#"
   xmlns:rdf="http://www.w3.org/1999/02/22-rdf-syntax-ns#"
   xmlns:svg="http://www.w3.org/2000/svg"
   xmlns="http://www.w3.org/2000/svg"
   xmlns:sodipodi="http://sodipodi.sourceforge.net/DTD/sodipodi-0.dtd"
   xmlns:inkscape="http://www.inkscape.org/namespaces/inkscape"
   width="397.11917mm"
   height="396.86905mm"
   viewBox="0 0 397.11917 396.86905"
   version="1.1"
   id="svg8"
   inkscape:version="0.92.3 (2405546, 2018-03-11)"
   sodipodi:docname="Presentacion3.svg">
  <defs
     id="defs2" />
  <sodipodi:namedview
     id="base"
     pagecolor="#ffffff"
     bordercolor="#666666"
     borderopacity="1.0"
     inkscape:pageopacity="0.0"
     inkscape:pageshadow="2"
     inkscape:zoom="0.35"
     inkscape:cx="-108.10999"
     inkscape:cy="555.70306"
     inkscape:document-units="mm"
     inkscape:current-layer="layer1"
     showgrid="false"
     inkscape:window-width="1853"
     inkscape:window-height="1025"
     inkscape:window-x="67"
     inkscape:window-y="27"
     inkscape:window-maximized="1" />
  <metadata
     id="metadata5">
    <rdf:RDF>
      <cc:Work
         rdf:about="">
        <dc:format>image/svg+xml</dc:format>
        <dc:type
           rdf:resource="http://purl.org/dc/dcmitype/StillImage" />
        <dc:title></dc:title>
      </cc:Work>
    </rdf:RDF>
  </metadata>
  <g
     inkscape:label="Capa 1"
     inkscape:groupmode="layer"
     id="layer1"
     transform="translate(-0.25588619,101.00595)">
    <g
       transform="matrix(1.0944897,0,0,-1.4584018,0.25588619,295.8631)"
       inkscape:label="Presentacion3MMComp"
       id="g842">
      <g
         id="g844">
        <path
           inkscape:connector-curvature="0"
           id="path846"
           style="fill:#ffffff;fill-opacity:1;fill-rule:nonzero;stroke:none"
           d="M 0,0 H 362.835 V 272.126 H 0 Z" />
      </g>
      <g
         transform="translate(233.391,12.121)"
         id="g848">
        <g
           id="g850">
          <g
             id="g852" />
          <g
             id="g854">
            <g
               id="g856">
              <path
                 inkscape:connector-curvature="0"
                 id="path858"
                 style="fill:none;stroke:#adade0;stroke-width:0.3985;stroke-linecap:butt;stroke-linejoin:miter;stroke-miterlimit:10;stroke-dasharray:none;stroke-opacity:1"
                 d="m 8.26909,0.79701 h 3.38733 V 3.18806 H 8.26909 Z" />
            </g>
          </g>
          <g
             id="g860">
            <g
               id="g862">
              <path
                 inkscape:connector-curvature="0"
                 id="path864"
                 style="fill:#d6d6f0;fill-opacity:1;fill-rule:nonzero;stroke:none"
                 d="M 4.00005,0.49998 2.00002,2.00002 4.00005,3.50003" />
              <path
                 inkscape:connector-curvature="0"
                 id="path866"
                 style="fill:#d6d6f0;fill-opacity:1;fill-rule:nonzero;stroke:none"
                 d="M 16.0002,0.49998 18.00021,2.00002 16.0002,3.50003" />
            </g>
          </g>
        </g>
        <g
           transform="translate(21.337)"
           id="g868">
          <g
             id="g870">
            <g
               id="g872" />
            <g
               id="g874">
              <g
                 id="g876">
                <path
                   inkscape:connector-curvature="0"
                   id="path878"
                   style="fill:none;stroke:#adade0;stroke-width:0.3985;stroke-linecap:butt;stroke-linejoin:miter;stroke-miterlimit:10;stroke-dasharray:none;stroke-opacity:1"
                   d="m 6.97394,0 h 3.38733 V 2.39105 H 6.97394 Z m 0.82614,2.40001 v 0.80002 h 3.40004 V 0.8 H 10.4001 m -1.8,2.40003 v 0.80002 h 3.40005 V 1.60002 h -0.80003" />
              </g>
            </g>
            <g
               id="g880">
              <g
                 id="g882">
                <path
                   inkscape:connector-curvature="0"
                   id="path884"
                   style="fill:#d6d6f0;fill-opacity:1;fill-rule:nonzero;stroke:none"
                   d="M 4.00005,0.49998 2.00002,2.00002 4.00005,3.50003 M 16.0002,0.49998 18.00021,2.00002 16.0002,3.50003" />
              </g>
            </g>
          </g>
          <g
             transform="translate(21.337)"
             id="g886">
            <g
               id="g888">
              <g
                 id="g890" />
              <g
                 id="g892">
                <g
                   id="g894">
                  <path
                     inkscape:connector-curvature="0"
                     id="path896"
                     style="fill:none;stroke:#adade0;stroke-width:0.59776002;stroke-linecap:butt;stroke-linejoin:miter;stroke-miterlimit:10;stroke-dasharray:none;stroke-opacity:1"
                     d="m 9.00009,3.00003 h 3.00006" />
                </g>
              </g>
              <g
                 id="g898">
                <g
                   id="g900">
                  <path
                     inkscape:connector-curvature="0"
                     id="path902"
                     style="fill:#d6d6f0;fill-opacity:1;fill-rule:nonzero;stroke:none"
                     d="M 4.00005,0.49998 2.00002,2.00002 4.00005,3.50003 M 16.0002,0.49998 18.00021,2.00002 16.0002,3.50003" />
                  <path
                     inkscape:connector-curvature="0"
                     id="path904"
                     style="fill:none;stroke:#d6d6f0;stroke-width:0.59776002;stroke-linecap:butt;stroke-linejoin:miter;stroke-miterlimit:10;stroke-dasharray:none;stroke-opacity:1"
                     d="m 8.00009,4.00005 h 3.00003 M 9.00009,2.00002 h 3.00006 M 8.00009,1 h 3.00003 M 9.00009,0 h 3.00006" />
                </g>
              </g>
            </g>
            <g
               transform="translate(21.336)"
               id="g906">
              <g
                 id="g908">
                <g
                   id="g910" />
                <g
                   id="g912">
                  <g
                     id="g914">
                    <path
                       inkscape:connector-curvature="0"
                       id="path916"
                       style="fill:none;stroke:#adade0;stroke-width:0.59776002;stroke-linecap:butt;stroke-linejoin:miter;stroke-miterlimit:10;stroke-dasharray:none;stroke-opacity:1"
                       d="m 8.00009,4.00005 h 3.00003 M 9.00009,3.00003 h 3.00006 M 9.00009,2.00002 h 3.00006" />
                  </g>
                </g>
                <g
                   id="g918">
                  <g
                     id="g920">
                    <path
                       inkscape:connector-curvature="0"
                       id="path922"
                       style="fill:#d6d6f0;fill-opacity:1;fill-rule:nonzero;stroke:none"
                       d="M 4.00005,0.49998 2.00002,2.00002 4.00005,3.50003 M 16.0002,0.49998 18.00021,2.00002 16.0002,3.50003" />
                    <path
                       inkscape:connector-curvature="0"
                       id="path924"
                       style="fill:none;stroke:#d6d6f0;stroke-width:0.59776002;stroke-linecap:butt;stroke-linejoin:miter;stroke-miterlimit:10;stroke-dasharray:none;stroke-opacity:1"
                       d="m 8.00009,1 h 3.00003 M 9.00009,0 h 3.00006" />
                  </g>
                </g>
              </g>
              <g
                 transform="translate(21.337)"
                 id="g926">
                <g
                   id="g928">
                  <g
                     id="g930" />
                  <g
                     id="g932">
                    <g
                       id="g934">
                      <path
                         inkscape:connector-curvature="0"
                         id="path936"
                         style="fill:none;stroke:#adade0;stroke-width:0.59776002;stroke-linecap:butt;stroke-linejoin:miter;stroke-miterlimit:10;stroke-dasharray:none;stroke-opacity:1"
                         d="m 8.00009,4.00005 h 3.00003 M 9.00009,3.00003 h 3.00006 M 9.00009,2.00002 h 3.00006 M 8.00009,1 h 3.00003 M 9.00009,0 h 3.00006" />
                    </g>
                  </g>
                </g>
                <g
                   transform="translate(21.337)"
                   id="g938">
                  <g
                     id="g940">
                    <g
                       id="g942" />
                    <g
                       id="g944">
                      <g
                         id="g946">
                        <path
                           inkscape:connector-curvature="0"
                           id="path948"
                           style="fill:none;stroke:#adade0;stroke-width:0.59776002;stroke-linecap:butt;stroke-linejoin:miter;stroke-miterlimit:10;stroke-dasharray:none;stroke-opacity:1"
                           d="M 10.4001,1.60002 12.00015,0" />
                        <path
                           inkscape:connector-curvature="0"
                           id="path950"
                           style="fill:none;stroke:#adade0;stroke-width:0.3985;stroke-linecap:butt;stroke-linejoin:miter;stroke-miterlimit:10;stroke-dasharray:none;stroke-opacity:1"
                           d="m 10.66016,2.49069 c 0,0.66027 -0.53526,1.19553 -1.19553,1.19553 -0.66028,0 -1.19554,-0.53526 -1.19554,-1.19553 0,-0.66028 0.53526,-1.19554 1.19554,-1.19554 0.66027,0 1.19553,0.53526 1.19553,1.19554 z" />
                        <path
                           inkscape:connector-curvature="0"
                           id="path952"
                           style="fill:none;stroke:#adade0;stroke-width:0.3985;stroke-linecap:round;stroke-linejoin:miter;stroke-miterlimit:10;stroke-dasharray:none;stroke-opacity:1"
                           d="m 4.00005,0 c 1.08096,0 2.00001,0.9 2.00001,2.00002 0,1.1 -0.90001,2.00003 -2.00001,2.00003 -1.10004,0 -2.00003,-0.90003 -2.00003,-2.00003 m 1.20001,0.6 -1.20001,-1 -1.20002,1 M 16.0002,0 c -1.10004,0 -2.00003,0.9 -2.00003,2.00002 0,1.1 0.89999,2.00003 2.00003,2.00003 1.1,0 2.00001,-0.90003 2.00001,-2.00003 m 1.20002,0.6 -1.20002,-1 -1.20001,1" />
                      </g>
                    </g>
                  </g>
                  <g
                     transform="translate(-340.075,-12.121)"
                     id="g954">
                    <text
                       id="text958"
                       style="font-variant:normal;font-weight:normal;font-size:14.34619999px;font-family:LMSans12;-inkscape-font-specification:LMSans12-Regular;writing-mode:lr-tb;fill:#3333b3;fill-opacity:1;fill-rule:nonzero;stroke:none"
                       transform="matrix(1,0,0,-1,60.999,190.818)">
                      <tspan
                         id="tspan956"
                         sodipodi:role="line"
                         y="0"
                         x="0 7.5905743 14.796671 22.002768 28.246233 31.550163 38.574062 45.780159 52.504223 55.808151 59.112083 66.318176 73.042244 84.925201 92.145645 103.06597 106.3699 113.09396 123.15495 127.44733 134.1714 139.55553 145.799 155.87433 163.08043 169.3239 177.30469 183.54816 190.57205 201.68031 208.88641 212.19034 215.49426 222.21834 229.42442 236.06099">Funcionalidaddelasfasesdelcompilador</tspan>
                    </text>
                    <text
                       id="text968"
                       style="font-variant:normal;font-weight:normal;font-size:10.90909958px;font-family:LMSans10;-inkscape-font-specification:LMSans10-Regular;writing-mode:lr-tb;fill:#000000;fill-opacity:1;fill-rule:nonzero;stroke:none"
                       transform="matrix(1,0,0,-1,55.205,173.757)">
                      <tspan
                         id="tspan960"
                         sodipodi:role="line"
                         y="0"
                         x="0 8.0301886 13.666921 22.148746 27.785479 32.732754 36.449486 45.334946 50.18404 55.638592 60.880413 66.517143 71.547333 77.184067 82.214249 87.15062 94.510986 99.360085 108.64046 111.24664 120.12119 124.97028 130.21211 132.8183 135.42447 141.27284 146.12193 151.36377 156.21286">Queparacoadyuvarenlacalifcaci</tspan>
                      <tspan
                         id="tspan962"
                         y="0.029999999"
                         x="158.81799">´</tspan>
                      <tspan
                         id="tspan964"
                         sodipodi:role="line"
                         y="0"
                         x="158.81799 164.27255 173.54201 179.17874 184.02783 190.27766 195.60893 199.33658 201.94276 210.60895 215.45805 222.81842 228.45515 233.39151 237.11916 241.96825 244.57443 249.81625">ondelprimerparcial</tspan>
                      <tspan
                         id="tspan966"
                         sodipodi:role="line"
                         y="37.542999"
                         x="108.576 115.8491 118.45528 124.09201 132.75821 138.39493">Alumno</tspan>
                    </text>
                    <text
                       id="text976"
                       style="font-variant:normal;font-weight:normal;font-size:7.97009993px;font-family:LMSans8;-inkscape-font-specification:LMSans8-Regular;writing-mode:lr-tb;fill:#000000;fill-opacity:1;fill-rule:nonzero;stroke:none"
                       transform="matrix(1,0,0,-1,129.233,113.743)">
                      <tspan
                         id="tspan970"
                         sodipodi:role="line"
                         y="0"
                         x="0 2.3519764 6.7243733 9.9705954 13.028723 15.049143 18.107269 22.479668 25.537794 32.593723 37.772694 42.00721 44.02763 46.04805">InstitutoPolit</tspan>
                      <tspan
                         id="tspan972"
                         y="0.028000001"
                         x="48.868">´</tspan>
                      <tspan
                         id="tspan974"
                         sodipodi:role="line"
                         y="0"
                         x="49.103001 52.866482 56.629963 61.002357 63.022781 66.786263 73.842194 79.819763 83.887703 87.651184 89.671608 93.90612 98.278519 102.34646">ecnicoNacional</tspan>
                    </text>
                    <text
                       id="text980"
                       style="font-variant:normal;font-weight:normal;font-size:10.90909958px;font-family:LMSans10;-inkscape-font-specification:LMSans10-Regular;writing-mode:lr-tb;fill:#000000;fill-opacity:1;fill-rule:nonzero;stroke:none"
                       transform="matrix(1,0,0,-1,145.751,89.203)">
                      <tspan
                         id="tspan978"
                         sodipodi:role="line"
                         y="0"
                         x="0 7.273097 12.727647 18.182198 22.363655 26.302931 35.390213 41.026943 49.519676 54.974228 60.428776 65.883331">Agostode2018</tspan>
                    </text>
                    <g
                       id="g982">
                      <path
                         inkscape:connector-curvature="0"
                         id="path984"
                         style="fill:#4747ba;fill-opacity:1;fill-rule:nonzero;stroke:none"
                         d="M 0,0 H 120.943 V 8.634 H 0 Z" />
                    </g>
                    <text
                       id="text992"
                       style="font-variant:normal;font-weight:normal;font-size:5.9776001px;font-family:LMSans8;-inkscape-font-specification:LMSans8-Regular;writing-mode:lr-tb;fill:#ffffff;fill-opacity:1;fill-rule:nonzero;stroke:none"
                       transform="matrix(1,0,0,-1,6.482,2.657)">
                      <tspan
                         id="tspan986"
                         sodipodi:role="line"
                         y="0"
                         x="0 4.2345319 5.7498536 9.0291653 14.073064 17.352375 24.760414 27.230358 29.000326 32.279636 34.714314 37.007919 38.523239 40.816845 44.096157 46.389763 51.681732 55.559998 58.735897 60.251221 61.766541">Alumno(InstitutoPolit</tspan>
                      <tspan
                         id="tspan988"
                         y="0.021"
                         x="63.882999">´</tspan>
                      <tspan
                         id="tspan990"
                         sodipodi:role="line"
                         y="0"
                         x="64.058998 66.881622 69.704247 72.983559 74.498878 77.321503 82.613472 87.096672 90.147636 92.970261 94.48558 97.661484 100.94079 103.99176 105.50708">ecnicoNacional)</tspan>
                    </text>
                    <g
                       transform="translate(120.943)"
                       id="g994">
                      <path
                         inkscape:connector-curvature="0"
                         id="path996"
                         style="fill:#8585d1;fill-opacity:1;fill-rule:nonzero;stroke:none"
                         d="M 0,0 H 120.943 V 8.634 H 0 Z" />
                    </g>
                    <text
                       id="text1000"
                       style="font-variant:normal;font-weight:normal;font-size:5.9776001px;font-family:LMSans8;-inkscape-font-specification:LMSans8-Regular;writing-mode:lr-tb;fill:#ffffff;fill-opacity:1;fill-rule:nonzero;stroke:none"
                       transform="matrix(1,0,0,-1,126.745,2.657)">
                      <tspan
                         id="tspan998"
                         sodipodi:role="line"
                         y="0"
                         x="0 3.4526618 6.7319732 10.017262 12.839885 14.355206 17.531105 20.810417 23.861383 25.376705 26.892027 30.171339 33.222305 38.617687 41.896999 46.835693 48.351013 51.401981 55.952728 57.893654 60.944622 63.379299 66.20192 70.75267 74.031975 76.854599 80.491974 83.31459 86.490494 91.534393 94.813705 96.329025 97.844345 100.89531 104.17462 107.1712">Funcionalidaddelasfasesdelcompilador</tspan>
                    </text>
                    <g
                       transform="translate(241.886)"
                       id="g1002">
                      <path
                         inkscape:connector-curvature="0"
                         id="path1004"
                         style="fill:#adade0;fill-opacity:1;fill-rule:nonzero;stroke:none"
                         d="M 0,0 H 120.943 V 8.634 H 0 Z" />
                    </g>
                    <text
                       id="text1008"
                       style="font-variant:normal;font-weight:normal;font-size:5.9776001px;font-family:LMSans8;-inkscape-font-specification:LMSans8-Regular;writing-mode:lr-tb;fill:#000000;fill-opacity:1;fill-rule:nonzero;stroke:none"
                       transform="matrix(1,0,0,-1,286.348,2.657)">
                      <tspan
                         id="tspan1006"
                         sodipodi:role="line"
                         y="0"
                         x="0 4.2345319 7.4104309 10.586329 13.021006 15.314611 20.606581 23.885891 28.830563 32.006462 35.182362 38.358257 56.352627 60.586563 64.820496 67.996399">Agostode20181/11</tspan>
                    </text>
                  </g>
                </g>
              </g>
            </g>
          </g>
        </g>
      </g>
    </g>
  </g>
</svg>
