<?xml version="1.0" encoding="UTF-8" standalone="no"?>
<!DOCTYPE svg PUBLIC "-//W3C//DTD SVG 1.0//EN" "http://www.w3.org/TR/2001/PR-SVG-20010719/DTD/svg10.dtd">
<svg width="30cm" height="10cm" viewBox="92 49 593 200" xmlns="http://www.w3.org/2000/svg" xmlns:xlink="http://www.w3.org/1999/xlink">
  <g id="Fondo">
    <g>
      <ellipse style="fill: #ffffff; fill-opacity: 1; stroke-opacity: 1; stroke-width: 2; stroke: #000000" cx="132.8" cy="136.5" rx="20" ry="20"/>
      <polyline style="fill: none; stroke-opacity: 1; stroke-width: 2; stroke: #000000" points="92.8,136.5 112.8,136.5 "/>
      <polygon style="fill: #000000; fill-opacity: 1; stroke-opacity: 1; stroke-width: 2; stroke: #000000" fill-rule="evenodd" points="107.2,134.1 112.8,136.5 107.2,138.5 "/>
      <text font-size="12.8" style="fill: #000000; fill-opacity: 1; stroke: none;text-anchor:middle;font-family:sans-serif;font-style:normal;font-weight:normal" x="132.8" y="140.381">
        <tspan x="132.8" y="140.381">1</tspan>
      </text>
    </g>
    <g>
      <ellipse style="fill: #ffffff; fill-opacity: 1; stroke-opacity: 1; stroke-width: 2; stroke: #000000" cx="237.8" cy="138.5" rx="20" ry="20"/>
      <text font-size="12.8" style="fill: #000000; fill-opacity: 1; stroke: none;text-anchor:middle;font-family:sans-serif;font-style:normal;font-weight:normal" x="237.8" y="142.381">
        <tspan x="237.8" y="142.381">2</tspan>
      </text>
    </g>
    <g>
      <ellipse style="fill: #ffffff; fill-opacity: 1; stroke-opacity: 1; stroke-width: 2; stroke: #000000" cx="347.8" cy="141.5" rx="20" ry="20"/>
      <text font-size="12.8" style="fill: #000000; fill-opacity: 1; stroke: none;text-anchor:middle;font-family:sans-serif;font-style:normal;font-weight:normal" x="347.8" y="145.381">
        <tspan x="347.8" y="145.381">3</tspan>
      </text>
    </g>
    <g>
      <ellipse style="fill: #ffffff; fill-opacity: 1; stroke-opacity: 1; stroke-width: 2; stroke: #000000" cx="454.8" cy="143.5" rx="20" ry="20"/>
      <text font-size="12.8" style="fill: #000000; fill-opacity: 1; stroke: none;text-anchor:middle;font-family:sans-serif;font-style:normal;font-weight:normal" x="454.8" y="147.381">
        <tspan x="454.8" y="147.381">4</tspan>
      </text>
    </g>
    <g>
      <ellipse style="fill: #ffffff; fill-opacity: 1; stroke-opacity: 1; stroke-width: 2; stroke: #000000" cx="132.8" cy="225.5" rx="20" ry="20"/>
      <text font-size="12.8" style="fill: #000000; fill-opacity: 1; stroke: none;text-anchor:middle;font-family:sans-serif;font-style:normal;font-weight:normal" x="132.8" y="229.381">
        <tspan x="132.8" y="229.381">7</tspan>
      </text>
    </g>
    <g>
      <ellipse style="fill: #ffffff; fill-opacity: 1; stroke-opacity: 1; stroke-width: 2; stroke: #000000" cx="238.8" cy="226.5" rx="20" ry="20"/>
      <text font-size="12.8" style="fill: #000000; fill-opacity: 1; stroke: none;text-anchor:middle;font-family:sans-serif;font-style:normal;font-weight:normal" x="238.8" y="230.381">
        <tspan x="238.8" y="230.381">8</tspan>
      </text>
    </g>
    <g>
      <ellipse style="fill: #ffffff; fill-opacity: 1; stroke-opacity: 1; stroke-width: 2; stroke: #000000" cx="451.8" cy="223.5" rx="20" ry="20"/>
      <ellipse style="fill: none; stroke-opacity: 1; stroke-width: 0.2; stroke: #000000" cx="451.8" cy="223.5" rx="16" ry="16"/>
      <text font-size="12.8" style="fill: #000000; fill-opacity: 1; stroke: none;text-anchor:middle;font-family:sans-serif;font-style:normal;font-weight:normal" x="451.8" y="227.381">
        <tspan x="451.8" y="227.381">10</tspan>
      </text>
    </g>
    <g>
      <line style="fill: none; stroke-opacity: 1; stroke-width: 2; stroke: #000000" x1="157.8" y1="139" x2="203.066" y2="139.823"/>
      <polygon style="fill: #000000; fill-opacity: 1; stroke-opacity: 1; stroke-width: 2; stroke: #000000" fill-rule="evenodd" points="210.564,139.959 200.475,144.777 203.066,139.823 200.657,134.778 "/>
    </g>
    <g>
      <line style="fill: none; stroke-opacity: 1; stroke-width: 2; stroke: #000000" x1="257.8" y1="138.5" x2="318.07" y2="140.653"/>
      <polygon style="fill: #000000; fill-opacity: 1; stroke-opacity: 1; stroke-width: 2; stroke: #000000" fill-rule="evenodd" points="325.565,140.92 315.393,145.56 318.07,140.653 315.75,135.566 "/>
    </g>
    <g>
      <line style="fill: none; stroke-opacity: 1; stroke-width: 2; stroke: #000000" x1="374.8" y1="140" x2="418.066" y2="140.816"/>
      <polygon style="fill: #000000; fill-opacity: 1; stroke-opacity: 1; stroke-width: 2; stroke: #000000" fill-rule="evenodd" points="425.564,140.958 415.472,145.768 418.066,140.816 415.66,135.77 "/>
    </g>
    <g>
      <line style="fill: none; stroke-opacity: 1; stroke-width: 2; stroke: #000000" x1="157.8" y1="225" x2="206.065" y2="225.832"/>
      <polygon style="fill: #000000; fill-opacity: 1; stroke-opacity: 1; stroke-width: 2; stroke: #000000" fill-rule="evenodd" points="213.564,225.961 203.48,230.788 206.065,225.832 203.652,220.79 "/>
    </g>
    <g>
      <line style="fill: none; stroke-opacity: 1; stroke-width: 2; stroke: #000000" x1="266.8" y1="229" x2="320.065" y2="228.155"/>
      <polygon style="fill: #000000; fill-opacity: 1; stroke-opacity: 1; stroke-width: 2; stroke: #000000" fill-rule="evenodd" points="327.564,228.035 317.645,233.194 320.065,228.155 317.486,223.195 "/>
    </g>
    <g>
      <line style="fill: none; stroke-opacity: 1; stroke-width: 2; stroke: #000000" x1="130.8" y1="161" x2="130.8" y2="192.264"/>
      <polygon style="fill: #000000; fill-opacity: 1; stroke-opacity: 1; stroke-width: 2; stroke: #000000" fill-rule="evenodd" points="130.8,199.764 125.8,189.764 130.8,192.264 135.8,189.764 "/>
    </g>
    <g>
      <line style="fill: none; stroke-opacity: 1; stroke-width: 2; stroke: #000000" x1="237.8" y1="158.5" x2="238.597" y2="196.766"/>
      <polygon style="fill: #000000; fill-opacity: 1; stroke-opacity: 1; stroke-width: 2; stroke: #000000" fill-rule="evenodd" points="238.753,204.264 233.546,194.371 238.597,196.766 243.544,194.162 "/>
    </g>
    <g>
      <line style="fill: none; stroke-opacity: 1; stroke-width: 2; stroke: #000000" x1="147.8" y1="206" x2="209.984" y2="159.806"/>
      <polygon style="fill: #000000; fill-opacity: 1; stroke-opacity: 1; stroke-width: 2; stroke: #000000" fill-rule="evenodd" points="216.005,155.333 210.959,165.31 209.984,159.806 204.996,157.283 "/>
    </g>
    <g>
      <path style="fill: none; stroke-opacity: 1; stroke-width: 2; stroke: #000000" d="M 648,115 A 507.903,507.903 0 0 0 154.279,113.218"/>
      <polygon style="fill: #000000; fill-opacity: 1; stroke-opacity: 1; stroke-width: 2; stroke: #000000" fill-rule="evenodd" points="147.737,116.883 153.902,107.556 154.234,113.136 158.898,116.218 "/>
    </g>
    <text font-size="28.2674" style="fill: #000000; fill-opacity: 1; stroke: none;text-anchor:start;font-family:sans-serif;font-style:normal;font-weight:700" x="332.6" y="185.238">
      <tspan x="332.6" y="185.238">x</tspan>
    </text>
    <text font-size="28.2674" style="fill: #000000; fill-opacity: 1; stroke: none;text-anchor:start;font-family:sans-serif;font-style:normal;font-weight:700" x="399.4" y="174.238">
      <tspan x="399.4" y="174.238">y</tspan>
    </text>
    <text font-size="28.2674" style="fill: #000000; fill-opacity: 1; stroke: none;text-anchor:start;font-family:sans-serif;font-style:normal;font-weight:700" x="468.2" y="188.238">
      <tspan x="468.2" y="188.238">z</tspan>
    </text>
    <text font-size="28.2674" style="fill: #000000; fill-opacity: 1; stroke: none;text-anchor:start;font-family:sans-serif;font-style:normal;font-weight:700" x="281" y="125.238">
      <tspan x="281" y="125.238">e</tspan>
    </text>
    <text font-size="28.2674" style="fill: #000000; fill-opacity: 1; stroke: none;text-anchor:start;font-family:sans-serif;font-style:normal;font-weight:700" x="216.6" y="75.2384">
      <tspan x="216.6" y="75.2384">e</tspan>
    </text>
    <text font-size="28.2674" style="fill: #000000; fill-opacity: 1; stroke: none;text-anchor:start;font-family:sans-serif;font-style:normal;font-weight:700" x="183.4" y="129.238">
      <tspan x="183.4" y="129.238">e</tspan>
    </text>
    <text font-size="28.2674" style="fill: #000000; fill-opacity: 1; stroke: none;text-anchor:start;font-family:sans-serif;font-style:normal;font-weight:700" x="389.2" y="132.238">
      <tspan x="389.2" y="132.238">e</tspan>
    </text>
    <text font-size="28.2674" style="fill: #000000; fill-opacity: 1; stroke: none;text-anchor:start;font-family:sans-serif;font-style:normal;font-weight:700" x="290" y="219.238">
      <tspan x="290" y="219.238">e</tspan>
    </text>
    <text font-size="28.2674" style="fill: #000000; fill-opacity: 1; stroke: none;text-anchor:start;font-family:sans-serif;font-style:normal;font-weight:700" x="174.8" y="218.238">
      <tspan x="174.8" y="218.238">e</tspan>
    </text>
    <g>
      <ellipse style="fill: #ffffff; fill-opacity: 1; stroke-opacity: 1; stroke-width: 2; stroke: #000000" cx="559" cy="141" rx="20" ry="20"/>
      <text font-size="12.8" style="fill: #000000; fill-opacity: 1; stroke: none;text-anchor:middle;font-family:sans-serif;font-style:normal;font-weight:normal" x="559" y="144.881">
        <tspan x="559" y="144.881">5</tspan>
      </text>
    </g>
    <g>
      <line style="fill: none; stroke-opacity: 1; stroke-width: 2; stroke: #000000" x1="479.818" y1="140" x2="524.266" y2="140.82"/>
      <polygon style="fill: #000000; fill-opacity: 1; stroke-opacity: 1; stroke-width: 2; stroke: #000000" fill-rule="evenodd" points="531.764,140.959 521.674,145.773 524.266,140.82 521.858,135.775 "/>
    </g>
    <text font-size="28.2674" style="fill: #000000; fill-opacity: 1; stroke: none;text-anchor:start;font-family:sans-serif;font-style:normal;font-weight:700" x="497.218" y="132.238">
      <tspan x="497.218" y="132.238">e</tspan>
    </text>
    <g>
      <line style="fill: none; stroke-opacity: 1; stroke-width: 2; stroke: #000000" x1="353" y1="164" x2="353" y2="189.264"/>
      <polygon style="fill: #000000; fill-opacity: 1; stroke-opacity: 1; stroke-width: 2; stroke: #000000" fill-rule="evenodd" points="353,196.764 348,186.764 353,189.264 358,186.764 "/>
    </g>
    <g>
      <line style="fill: none; stroke-opacity: 1; stroke-width: 2; stroke: #000000" x1="252.944" y1="212.356" x2="322.093" y2="162.68"/>
      <polygon style="fill: #000000; fill-opacity: 1; stroke-opacity: 1; stroke-width: 2; stroke: #000000" fill-rule="evenodd" points="328.184,158.305 322.98,168.2 322.093,162.68 317.145,160.078 "/>
    </g>
    <text font-size="28.2674" style="fill: #000000; fill-opacity: 1; stroke: none;text-anchor:start;font-family:sans-serif;font-style:normal;font-weight:700" x="265.8" y="179.238">
      <tspan x="265.8" y="179.238">w</tspan>
    </text>
    <g>
      <ellipse style="fill: #ffffff; fill-opacity: 1; stroke-opacity: 1; stroke-width: 2; stroke: #000000" cx="663" cy="141" rx="20" ry="20"/>
      <text font-size="12.8" style="fill: #000000; fill-opacity: 1; stroke: none;text-anchor:middle;font-family:sans-serif;font-style:normal;font-weight:normal" x="663" y="144.881">
        <tspan x="663" y="144.881">6</tspan>
      </text>
    </g>
    <g>
      <line style="fill: none; stroke-opacity: 1; stroke-width: 2; stroke: #000000" x1="583" y1="140" x2="629.264" y2="140"/>
      <polygon style="fill: #000000; fill-opacity: 1; stroke-opacity: 1; stroke-width: 2; stroke: #000000" fill-rule="evenodd" points="636.764,140 626.764,145 629.264,140 626.764,135 "/>
    </g>
    <text font-size="28.2674" style="fill: #000000; fill-opacity: 1; stroke: none;text-anchor:start;font-family:sans-serif;font-style:normal;font-weight:700" x="595.8" y="133.238">
      <tspan x="595.8" y="133.238">e</tspan>
    </text>
    <g>
      <ellipse style="fill: #ffffff; fill-opacity: 1; stroke-opacity: 1; stroke-width: 2; stroke: #000000" cx="355" cy="225" rx="20" ry="20"/>
      <text font-size="12.8" style="fill: #000000; fill-opacity: 1; stroke: none;text-anchor:middle;font-family:sans-serif;font-style:normal;font-weight:normal" x="355" y="228.881">
        <tspan x="355" y="228.881">9</tspan>
      </text>
    </g>
    <g>
      <line style="fill: none; stroke-opacity: 1; stroke-width: 2; stroke: #000000" x1="379" y1="226" x2="418.266" y2="226.801"/>
      <polygon style="fill: #000000; fill-opacity: 1; stroke-opacity: 1; stroke-width: 2; stroke: #000000" fill-rule="evenodd" points="425.764,226.954 415.664,231.749 418.266,226.801 415.868,221.751 "/>
    </g>
    <g>
      <line style="fill: none; stroke-opacity: 1; stroke-width: 2; stroke: #000000" x1="451" y1="171" x2="452.306" y2="189.289"/>
      <polygon style="fill: #000000; fill-opacity: 1; stroke-opacity: 1; stroke-width: 2; stroke: #000000" fill-rule="evenodd" points="452.841,196.77 447.141,187.151 452.306,189.289 457.116,186.439 "/>
    </g>
    <text font-size="28.2674" style="fill: #000000; fill-opacity: 1; stroke: none;text-anchor:start;font-family:sans-serif;font-style:normal;font-weight:700" x="160.8" y="178.238">
      <tspan x="160.8" y="178.238">v</tspan>
    </text>
    <text font-size="28.2674" style="fill: #000000; fill-opacity: 1; stroke: none;text-anchor:start;font-family:sans-serif;font-style:normal;font-weight:700" x="397.8" y="214.238">
      <tspan x="397.8" y="214.238">e</tspan>
    </text>
    <g>
      <line style="fill: none; stroke-opacity: 1; stroke-width: 2; stroke: #000000" x1="373" y1="208" x2="429.27" y2="164.919"/>
      <polygon style="fill: #000000; fill-opacity: 1; stroke-opacity: 1; stroke-width: 2; stroke: #000000" fill-rule="evenodd" points="435.225,160.359 430.324,170.408 429.27,164.919 424.245,162.468 "/>
    </g>
    <text font-size="28.2674" style="fill: #000000; fill-opacity: 1; stroke: none;text-anchor:start;font-family:sans-serif;font-style:normal;font-weight:700" x="101.8" y="180.238">
      <tspan x="101.8" y="180.238">t</tspan>
    </text>
  </g>
</svg>
