<?xml version="1.0" encoding="UTF-8" standalone="no"?>
<!DOCTYPE svg PUBLIC "-//W3C//DTD SVG 1.0//EN" "http://www.w3.org/TR/2001/PR-SVG-20010719/DTD/svg10.dtd">
<svg width="11cm" height="7cm" viewBox="141 110 214 130" xmlns="http://www.w3.org/2000/svg" xmlns:xlink="http://www.w3.org/1999/xlink">
  <g id="Fondo">
    <g>
      <ellipse style="fill: #ffffff; fill-opacity: 1; stroke-opacity: 1; stroke-width: 2; stroke: #000000" cx="181.8" cy="153" rx="20" ry="20"/>
      <polyline style="fill: none; stroke-opacity: 1; stroke-width: 2; stroke: #000000" points="141.8,153 161.8,153 "/>
      <polygon style="fill: #000000; fill-opacity: 1; stroke-opacity: 1; stroke-width: 2; stroke: #000000" fill-rule="evenodd" points="156.2,150.6 161.8,153 156.2,155 "/>
      <text font-size="12.8" style="fill: #000000; fill-opacity: 1; stroke: none;text-anchor:middle;font-family:sans-serif;font-style:normal;font-weight:normal" x="181.8" y="156.881">
        <tspan x="181.8" y="156.881">1</tspan>
      </text>
    </g>
    <g>
      <ellipse style="fill: #ffffff; fill-opacity: 1; stroke-opacity: 1; stroke-width: 2; stroke: #000000" cx="333.8" cy="155" rx="20" ry="20"/>
      <text font-size="12.8" style="fill: #000000; fill-opacity: 1; stroke: none;text-anchor:middle;font-family:sans-serif;font-style:normal;font-weight:normal" x="333.8" y="158.881">
        <tspan x="333.8" y="158.881">3</tspan>
      </text>
    </g>
    <g>
      <ellipse style="fill: #ffffff; fill-opacity: 1; stroke-opacity: 1; stroke-width: 2; stroke: #000000" cx="261.8" cy="153" rx="20" ry="20"/>
      <ellipse style="fill: none; stroke-opacity: 1; stroke-width: 0.2; stroke: #000000" cx="261.8" cy="153" rx="16" ry="16"/>
      <text font-size="12.8" style="fill: #000000; fill-opacity: 1; stroke: none;text-anchor:middle;font-family:sans-serif;font-style:normal;font-weight:normal" x="261.8" y="156.881">
        <tspan x="261.8" y="156.881">2</tspan>
      </text>
    </g>
    <text font-size="28.2674" style="fill: #000000; fill-opacity: 1; stroke: none;text-anchor:start;font-family:sans-serif;font-style:normal;font-weight:700" x="206.6" y="136.238">
      <tspan x="206.6" y="136.238">a</tspan>
    </text>
    <text font-size="28.2674" style="fill: #000000; fill-opacity: 1; stroke: none;text-anchor:start;font-family:sans-serif;font-style:normal;font-weight:700" x="289.4" y="138.238">
      <tspan x="289.4" y="138.238">a</tspan>
    </text>
    <g>
      <line style="fill: none; stroke-opacity: 1; stroke-width: 2; stroke: #000000" x1="201.8" y1="153" x2="232.064" y2="153"/>
      <polygon style="fill: #000000; fill-opacity: 1; stroke-opacity: 1; stroke-width: 2; stroke: #000000" fill-rule="evenodd" points="239.564,153 229.564,158 232.064,153 229.564,148 "/>
    </g>
    <g>
      <line style="fill: none; stroke-opacity: 1; stroke-width: 2; stroke: #000000" x1="287.8" y1="153" x2="304.093" y2="154.253"/>
      <polygon style="fill: #000000; fill-opacity: 1; stroke-opacity: 1; stroke-width: 2; stroke: #000000" fill-rule="evenodd" points="311.571,154.829 301.216,159.047 304.093,154.253 301.983,149.076 "/>
    </g>
    <g>
      <path style="fill: none; stroke-opacity: 1; stroke-width: 2; stroke: #000000" d="M 331,180 A 125,125 0 0 1 188.992,185.522"/>
      <polygon style="fill: #000000; fill-opacity: 1; stroke-opacity: 1; stroke-width: 2; stroke: #000000" fill-rule="evenodd" points="182.789,181.342 193.789,183.342 188.789,185.842 187.789,191.342 "/>
    </g>
    <text font-size="28.2674" style="fill: #000000; fill-opacity: 1; stroke: none;text-anchor:start;font-family:sans-serif;font-style:normal;font-weight:700" x="226.8" y="233.238">
      <tspan x="226.8" y="233.238">a</tspan>
    </text>
  </g>
</svg>
