<?xml version="1.0" encoding="UTF-8" standalone="no"?>
<!DOCTYPE svg PUBLIC "-//W3C//DTD SVG 1.0//EN" "http://www.w3.org/TR/2001/PR-SVG-20010719/DTD/svg10.dtd">
<svg width="19cm" height="8cm" viewBox="115 109 367 152" xmlns="http://www.w3.org/2000/svg" xmlns:xlink="http://www.w3.org/1999/xlink">
  <g id="Fondo">
    <g>
      <ellipse style="fill: #ffffff; fill-opacity: 1; stroke-opacity: 1; stroke-width: 2; stroke: #000000" cx="412.8" cy="188" rx="20" ry="20"/>
      <text font-size="12.8" style="fill: #000000; fill-opacity: 1; stroke: none;text-anchor:middle;font-family:sans-serif;font-style:normal;font-weight:normal" x="412.8" y="191.881">
        <tspan x="412.8" y="191.881">3</tspan>
      </text>
    </g>
    <text font-size="28.2674" style="fill: #000000; fill-opacity: 1; stroke: none;text-anchor:start;font-family:sans-serif;font-style:normal;font-weight:700" x="206.6" y="136.238">
      <tspan x="206.6" y="136.238">1</tspan>
    </text>
    <text font-size="28.2674" style="fill: #000000; fill-opacity: 1; stroke: none;text-anchor:start;font-family:sans-serif;font-style:normal;font-weight:700" x="347.4" y="135.238">
      <tspan x="347.4" y="135.238">0</tspan>
    </text>
    <g>
      <ellipse style="fill: #ffffff; fill-opacity: 1; stroke-opacity: 1; stroke-width: 2; stroke: #000000" cx="155" cy="184" rx="20" ry="20"/>
      <ellipse style="fill: none; stroke-opacity: 1; stroke-width: 0.2; stroke: #000000" cx="155" cy="184" rx="16" ry="16"/>
      <polyline style="fill: none; stroke-opacity: 1; stroke-width: 2; stroke: #000000" points="115,184 135,184 "/>
      <polygon style="fill: #000000; fill-opacity: 1; stroke-opacity: 1; stroke-width: 2; stroke: #000000" fill-rule="evenodd" points="129.4,181.6 135,184 129.4,186 "/>
      <text font-size="12.8" style="fill: #000000; fill-opacity: 1; stroke: none;text-anchor:middle;font-family:sans-serif;font-style:normal;font-weight:normal" x="155" y="187.881">
        <tspan x="155" y="187.881">1</tspan>
      </text>
    </g>
    <g>
      <ellipse style="fill: #ffffff; fill-opacity: 1; stroke-opacity: 1; stroke-width: 2; stroke: #000000" cx="285" cy="186" rx="20" ry="20"/>
      <text font-size="12.8" style="fill: #000000; fill-opacity: 1; stroke: none;text-anchor:middle;font-family:sans-serif;font-style:normal;font-weight:normal" x="285" y="189.881">
        <tspan x="285" y="189.881">2</tspan>
      </text>
    </g>
    <g>
      <path style="fill: none; stroke-opacity: 1; stroke-width: 2; stroke: #000000" d="M 268,157 A 129.935,129.935 0 0 0 174.965,156.256"/>
      <polygon style="fill: #000000; fill-opacity: 1; stroke-opacity: 1; stroke-width: 2; stroke: #000000" fill-rule="evenodd" points="168.03,159.062 175.009,150.328 174.838,155.915 179.205,159.405 "/>
    </g>
    <g>
      <path style="fill: none; stroke-opacity: 1; stroke-width: 2; stroke: #000000" d="M 167,203 A 110.388,110.388 0 0 0 259.913,214.416"/>
      <polygon style="fill: #000000; fill-opacity: 1; stroke-opacity: 1; stroke-width: 2; stroke: #000000" fill-rule="evenodd" points="266.944,211.878 259.711,220.404 260.046,214.824 255.783,211.207 "/>
    </g>
    <g>
      <path style="fill: none; stroke-opacity: 1; stroke-width: 2; stroke: #000000" d="M 404,161 A 94.8697,94.8697 0 0 0 299.964,158.466"/>
      <polygon style="fill: #000000; fill-opacity: 1; stroke-opacity: 1; stroke-width: 2; stroke: #000000" fill-rule="evenodd" points="293.769,162.632 298.619,152.558 299.701,158.043 304.737,160.468 "/>
    </g>
    <g>
      <path style="fill: none; stroke-opacity: 1; stroke-width: 2; stroke: #000000" d="M 304,207 A 144.401,144.401 0 0 0 391.602,214.478"/>
      <polygon style="fill: #000000; fill-opacity: 1; stroke-opacity: 1; stroke-width: 2; stroke: #000000" fill-rule="evenodd" points="398.858,212.643 390.717,220.306 391.675,214.798 387.843,210.727 "/>
    </g>
    <text font-size="28.2674" style="fill: #000000; fill-opacity: 1; stroke: none;text-anchor:start;font-family:sans-serif;font-style:normal;font-weight:700" x="205.8" y="252.238">
      <tspan x="205.8" y="252.238">1</tspan>
    </text>
    <text font-size="28.2674" style="fill: #000000; fill-opacity: 1; stroke: none;text-anchor:start;font-family:sans-serif;font-style:normal;font-weight:700" x="343.8" y="250.238">
      <tspan x="343.8" y="250.238">0</tspan>
    </text>
    <g>
      <path style="fill: none; stroke-opacity: 1; stroke-width: 2; stroke: #000000" d="M 132,196 A 16.7593,16.7593 0 1 0 158.432,215.577"/>
      <polygon style="fill: #000000; fill-opacity: 1; stroke-opacity: 1; stroke-width: 2; stroke: #000000" fill-rule="evenodd" points="160.184,209.228 165.99,218.783 160.801,216.703 156.024,219.606 "/>
    </g>
    <g>
      <path style="fill: none; stroke-opacity: 1; stroke-width: 2; stroke: #000000" d="M 427,163 A 16.4652,16.4652 0 1 1 445.569,189.567"/>
      <polygon style="fill: #000000; fill-opacity: 1; stroke-opacity: 1; stroke-width: 2; stroke: #000000" fill-rule="evenodd" points="439.225,191.226 449.679,187.264 446.686,191.985 448.667,197.212 "/>
    </g>
    <text font-size="28.2674" style="fill: #000000; fill-opacity: 1; stroke: none;text-anchor:start;font-family:sans-serif;font-style:normal;font-weight:700" x="461.6" y="182.238">
      <tspan x="461.6" y="182.238">1</tspan>
    </text>
    <text font-size="28.2674" style="fill: #000000; fill-opacity: 1; stroke: none;text-anchor:start;font-family:sans-serif;font-style:normal;font-weight:700" x="125.4" y="254.238">
      <tspan x="125.4" y="254.238">0</tspan>
    </text>
  </g>
</svg>
