<?xml version="1.0" encoding="UTF-8" standalone="no"?>
<!DOCTYPE svg PUBLIC "-//W3C//DTD SVG 1.0//EN" "http://www.w3.org/TR/2001/PR-SVG-20010719/DTD/svg10.dtd">
<svg width="16cm" height="10cm" viewBox="150 76 320 186" xmlns="http://www.w3.org/2000/svg" xmlns:xlink="http://www.w3.org/1999/xlink">
  <g id="Fondo">
    <g>
      <ellipse style="fill: #ffffff; fill-opacity: 1; stroke-opacity: 1; stroke-width: 2; stroke: #000000" cx="190.8" cy="120" rx="20" ry="20"/>
      <polyline style="fill: none; stroke-opacity: 1; stroke-width: 2; stroke: #000000" points="150.8,120 170.8,120 "/>
      <polygon style="fill: #000000; fill-opacity: 1; stroke-opacity: 1; stroke-width: 2; stroke: #000000" fill-rule="evenodd" points="165.2,117.6 170.8,120 165.2,122 "/>
      <text font-size="12.8" style="fill: #000000; fill-opacity: 1; stroke: none;text-anchor:middle;font-family:sans-serif;font-style:normal;font-weight:normal" x="190.8" y="123.881">
        <tspan x="190.8" y="123.881">a</tspan>
      </text>
    </g>
    <g>
      <ellipse style="fill: #ffffff; fill-opacity: 1; stroke-opacity: 1; stroke-width: 2; stroke: #000000" cx="282.8" cy="121" rx="20" ry="20"/>
      <text font-size="12.8" style="fill: #000000; fill-opacity: 1; stroke: none;text-anchor:middle;font-family:sans-serif;font-style:normal;font-weight:normal" x="282.8" y="124.881">
        <tspan x="282.8" y="124.881">b</tspan>
      </text>
    </g>
    <g>
      <ellipse style="fill: #ffffff; fill-opacity: 1; stroke-opacity: 1; stroke-width: 2; stroke: #000000" cx="368.8" cy="122" rx="20" ry="20"/>
      <text font-size="12.8" style="fill: #000000; fill-opacity: 1; stroke: none;text-anchor:middle;font-family:sans-serif;font-style:normal;font-weight:normal" x="368.8" y="125.881">
        <tspan x="368.8" y="125.881">c</tspan>
      </text>
    </g>
    <g>
      <ellipse style="fill: #ffffff; fill-opacity: 1; stroke-opacity: 1; stroke-width: 2; stroke: #000000" cx="230.8" cy="188" rx="20" ry="20"/>
      <text font-size="12.8" style="fill: #000000; fill-opacity: 1; stroke: none;text-anchor:middle;font-family:sans-serif;font-style:normal;font-weight:normal" x="230.8" y="191.881">
        <tspan x="230.8" y="191.881">e</tspan>
      </text>
    </g>
    <g>
      <ellipse style="fill: #ffffff; fill-opacity: 1; stroke-opacity: 1; stroke-width: 2; stroke: #000000" cx="329.8" cy="187" rx="20" ry="20"/>
      <text font-size="12.8" style="fill: #000000; fill-opacity: 1; stroke: none;text-anchor:middle;font-family:sans-serif;font-style:normal;font-weight:normal" x="329.8" y="190.881">
        <tspan x="329.8" y="190.881">f</tspan>
      </text>
    </g>
    <g>
      <line style="fill: none; stroke-opacity: 1; stroke-width: 2; stroke: #000000" x1="210.8" y1="120" x2="250.066" y2="119.199"/>
      <polygon style="fill: #000000; fill-opacity: 1; stroke-opacity: 1; stroke-width: 2; stroke: #000000" fill-rule="evenodd" points="257.564,119.046 247.668,124.249 250.066,119.199 247.464,114.251 "/>
    </g>
    <g>
      <line style="fill: none; stroke-opacity: 1; stroke-width: 2; stroke: #000000" x1="302.8" y1="121" x2="335.064" y2="121"/>
      <polygon style="fill: #000000; fill-opacity: 1; stroke-opacity: 1; stroke-width: 2; stroke: #000000" fill-rule="evenodd" points="342.564,121 332.564,126 335.064,121 332.564,116 "/>
    </g>
    <g>
      <line style="fill: none; stroke-opacity: 1; stroke-width: 2; stroke: #000000" x1="392.8" y1="121" x2="418.264" y2="121"/>
      <polygon style="fill: #000000; fill-opacity: 1; stroke-opacity: 1; stroke-width: 2; stroke: #000000" fill-rule="evenodd" points="425.764,121 415.764,126 418.264,121 415.764,116 "/>
    </g>
    <g>
      <line style="fill: none; stroke-opacity: 1; stroke-width: 2; stroke: #000000" x1="198.8" y1="143" x2="211.78" y2="165.429"/>
      <polygon style="fill: #000000; fill-opacity: 1; stroke-opacity: 1; stroke-width: 2; stroke: #000000" fill-rule="evenodd" points="215.536,171.921 206.2,165.77 211.78,165.429 214.855,160.761 "/>
    </g>
    <g>
      <line style="fill: none; stroke-opacity: 1; stroke-width: 2; stroke: #000000" x1="294.8" y1="139" x2="311.725" y2="162.211"/>
      <polygon style="fill: #000000; fill-opacity: 1; stroke-opacity: 1; stroke-width: 2; stroke: #000000" fill-rule="evenodd" points="316.144,168.271 306.212,163.137 311.725,162.211 314.292,157.245 "/>
    </g>
    <g>
      <line style="fill: none; stroke-opacity: 1; stroke-width: 2; stroke: #000000" x1="380.8" y1="142" x2="401.665" y2="161.375"/>
      <polygon style="fill: #000000; fill-opacity: 1; stroke-opacity: 1; stroke-width: 2; stroke: #000000" fill-rule="evenodd" points="407.161,166.478 396.431,163.338 401.665,161.375 403.236,156.01 "/>
    </g>
    <text font-size="28.2674" style="fill: #000000; fill-opacity: 1; stroke: none;text-anchor:start;font-family:sans-serif;font-style:normal;font-weight:700" x="220.8" y="107">
      <tspan x="220.8" y="107">0</tspan>
    </text>
    <text font-size="28.2674" style="fill: #000000; fill-opacity: 1; stroke: none;text-anchor:start;font-family:sans-serif;font-style:normal;font-weight:700" x="314.4" y="106.238">
      <tspan x="314.4" y="106.238">1</tspan>
    </text>
    <text font-size="28.2674" style="fill: #000000; fill-opacity: 1; stroke: none;text-anchor:start;font-family:sans-serif;font-style:normal;font-weight:700" x="398.2" y="103.238">
      <tspan x="398.2" y="103.238">1</tspan>
    </text>
    <text font-size="28.2674" style="fill: #000000; fill-opacity: 1; stroke: none;text-anchor:start;font-family:sans-serif;font-style:normal;font-weight:700" x="314" y="153.238">
      <tspan x="314" y="153.238">0</tspan>
    </text>
    <text font-size="28.2674" style="fill: #000000; fill-opacity: 1; stroke: none;text-anchor:start;font-family:sans-serif;font-style:normal;font-weight:700" x="401.8" y="154.238">
      <tspan x="401.8" y="154.238">0</tspan>
    </text>
    <text font-size="28.2674" style="fill: #000000; fill-opacity: 1; stroke: none;text-anchor:start;font-family:sans-serif;font-style:normal;font-weight:700" x="209.6" y="155.238">
      <tspan x="209.6" y="155.238">1</tspan>
    </text>
    <g>
      <path style="fill: none; stroke-opacity: 1; stroke-width: 2; stroke: #000000" d="M 245.8,170 A 45.7689,45.7689 0 0 1 301.706,168.568"/>
      <polygon style="fill: #000000; fill-opacity: 1; stroke-opacity: 1; stroke-width: 2; stroke: #000000" fill-rule="evenodd" points="307.31,173.333 296.917,169.211 302.311,167.742 304.372,162.546 "/>
    </g>
    <g>
      <path style="fill: none; stroke-opacity: 1; stroke-width: 2; stroke: #000000" d="M 238.8,212 A 46.1562,46.1562 0 0 0 308.875,216.526"/>
      <polygon style="fill: #000000; fill-opacity: 1; stroke-opacity: 1; stroke-width: 2; stroke: #000000" fill-rule="evenodd" points="313.606,210.891 312.497,222.016 309.603,217.233 304.041,216.679 "/>
    </g>
    <g>
      <path style="fill: none; stroke-opacity: 1; stroke-width: 2; stroke: #000000" d="M 339.8,208 A 39.7625,39.7625 0 0 0 403.221,214.721"/>
      <polygon style="fill: #000000; fill-opacity: 1; stroke-opacity: 1; stroke-width: 2; stroke: #000000" fill-rule="evenodd" points="407.717,208.956 407.247,220.127 404.084,215.518 398.499,215.283 "/>
    </g>
    <g>
      <path style="fill: none; stroke-opacity: 1; stroke-width: 2; stroke: #000000" d="M 343.944,172.856 A 35.8833,35.8833 0 0 1 392.308,170.093"/>
      <polygon style="fill: #000000; fill-opacity: 1; stroke-opacity: 1; stroke-width: 2; stroke: #000000" fill-rule="evenodd" points="397.497,175.183 387.607,169.968 393.128,169.087 395.735,164.142 "/>
    </g>
    <text font-size="28.2674" style="fill: #000000; fill-opacity: 1; stroke: none;text-anchor:start;font-family:sans-serif;font-style:normal;font-weight:700" x="265.2" y="187.238">
      <tspan x="265.2" y="187.238">0</tspan>
    </text>
    <text font-size="28.2674" style="fill: #000000; fill-opacity: 1; stroke: none;text-anchor:start;font-family:sans-serif;font-style:normal;font-weight:700" x="362.6" y="188.238">
      <tspan x="362.6" y="188.238">0</tspan>
    </text>
    <text font-size="28.2674" style="fill: #000000; fill-opacity: 1; stroke: none;text-anchor:start;font-family:sans-serif;font-style:normal;font-weight:700" x="265.6" y="256.238">
      <tspan x="265.6" y="256.238">1</tspan>
    </text>
    <text font-size="28.2674" style="fill: #000000; fill-opacity: 1; stroke: none;text-anchor:start;font-family:sans-serif;font-style:normal;font-weight:700" x="367.4" y="254.238">
      <tspan x="367.4" y="254.238">1</tspan>
    </text>
    <g>
      <ellipse style="fill: #ffffff; fill-opacity: 1; stroke-opacity: 1; stroke-width: 2; stroke: #000000" cx="418" cy="188" rx="20" ry="20"/>
      <ellipse style="fill: none; stroke-opacity: 1; stroke-width: 0.2; stroke: #000000" cx="418" cy="188" rx="16" ry="16"/>
      <text font-size="12.8" style="fill: #000000; fill-opacity: 1; stroke: none;text-anchor:middle;font-family:sans-serif;font-style:normal;font-weight:normal" x="418" y="191.881">
        <tspan x="418" y="191.881">g</tspan>
      </text>
    </g>
    <g>
      <ellipse style="fill: #ffffff; fill-opacity: 1; stroke-opacity: 1; stroke-width: 2; stroke: #000000" cx="448" cy="121" rx="20" ry="20"/>
      <text font-size="12.8" style="fill: #000000; fill-opacity: 1; stroke: none;text-anchor:middle;font-family:sans-serif;font-style:normal;font-weight:normal" x="448" y="124.881">
        <tspan x="448" y="124.881">d</tspan>
      </text>
    </g>
  </g>
</svg>
