<?xml version="1.0" encoding="UTF-8" standalone="no"?>
<!DOCTYPE svg PUBLIC "-//W3C//DTD SVG 1.0//EN" "http://www.w3.org/TR/2001/PR-SVG-20010719/DTD/svg10.dtd">
<svg width="32cm" height="19cm" viewBox="155 82 630 367" xmlns="http://www.w3.org/2000/svg" xmlns:xlink="http://www.w3.org/1999/xlink">
  <g id="Fondo">
    <g>
      <ellipse style="fill: #ffffff; fill-opacity: 1; stroke-opacity: 1; stroke-width: 2; stroke: #000000" cx="195" cy="199" rx="20" ry="20"/>
      <polyline style="fill: none; stroke-opacity: 1; stroke-width: 2; stroke: #000000" points="155,199 175,199 "/>
      <polygon style="fill: #000000; fill-opacity: 1; stroke-opacity: 1; stroke-width: 2; stroke: #000000" fill-rule="evenodd" points="169.4,196.6 175,199 169.4,201 "/>
      <text font-size="12.8" style="fill: #000000; fill-opacity: 1; stroke: none;text-anchor:middle;font-family:sans-serif;font-style:normal;font-weight:normal" x="195" y="202.881">
        <tspan x="195" y="202.881">1</tspan>
      </text>
    </g>
    <g>
      <ellipse style="fill: #ffffff; fill-opacity: 1; stroke-opacity: 1; stroke-width: 2; stroke: #000000" cx="265" cy="138" rx="20" ry="20"/>
      <text font-size="12.8" style="fill: #000000; fill-opacity: 1; stroke: none;text-anchor:middle;font-family:sans-serif;font-style:normal;font-weight:normal" x="265" y="141.881">
        <tspan x="265" y="141.881">2</tspan>
      </text>
    </g>
    <g>
      <ellipse style="fill: #ffffff; fill-opacity: 1; stroke-opacity: 1; stroke-width: 2; stroke: #000000" cx="354" cy="137" rx="20" ry="20"/>
      <ellipse style="fill: none; stroke-opacity: 1; stroke-width: 0.2; stroke: #000000" cx="354" cy="137" rx="16" ry="16"/>
      <text font-size="12.8" style="fill: #000000; fill-opacity: 1; stroke: none;text-anchor:middle;font-family:sans-serif;font-style:normal;font-weight:normal" x="354" y="140.881">
        <tspan x="354" y="140.881">3</tspan>
      </text>
    </g>
    <g>
      <ellipse style="fill: #ffffff; fill-opacity: 1; stroke-opacity: 1; stroke-width: 2; stroke: #000000" cx="305" cy="240" rx="20" ry="20"/>
      <text font-size="12.8" style="fill: #000000; fill-opacity: 1; stroke: none;text-anchor:middle;font-family:sans-serif;font-style:normal;font-weight:normal" x="305" y="243.881">
        <tspan x="305" y="243.881">4</tspan>
      </text>
    </g>
    <g>
      <ellipse style="fill: #ffffff; fill-opacity: 1; stroke-opacity: 1; stroke-width: 2; stroke: #000000" cx="383" cy="241" rx="20" ry="20"/>
      <text font-size="12.8" style="fill: #000000; fill-opacity: 1; stroke: none;text-anchor:middle;font-family:sans-serif;font-style:normal;font-weight:normal" x="383" y="244.881">
        <tspan x="383" y="244.881">5</tspan>
      </text>
    </g>
    <g>
      <ellipse style="fill: #ffffff; fill-opacity: 1; stroke-opacity: 1; stroke-width: 2; stroke: #000000" cx="564" cy="236" rx="20" ry="20"/>
      <text font-size="12.8" style="fill: #000000; fill-opacity: 1; stroke: none;text-anchor:middle;font-family:sans-serif;font-style:normal;font-weight:normal" x="564" y="239.881">
        <tspan x="564" y="239.881">6</tspan>
      </text>
    </g>
    <g>
      <ellipse style="fill: #ffffff; fill-opacity: 1; stroke-opacity: 1; stroke-width: 2; stroke: #000000" cx="655" cy="237" rx="20" ry="20"/>
      <text font-size="12.8" style="fill: #000000; fill-opacity: 1; stroke: none;text-anchor:middle;font-family:sans-serif;font-style:normal;font-weight:normal" x="655" y="240.881">
        <tspan x="655" y="240.881">7</tspan>
      </text>
    </g>
    <g>
      <ellipse style="fill: #ffffff; fill-opacity: 1; stroke-opacity: 1; stroke-width: 2; stroke: #000000" cx="466" cy="240" rx="20" ry="20"/>
      <ellipse style="fill: none; stroke-opacity: 1; stroke-width: 0.2; stroke: #000000" cx="466" cy="240" rx="16" ry="16"/>
      <text font-size="12.8" style="fill: #000000; fill-opacity: 1; stroke: none;text-anchor:middle;font-family:sans-serif;font-style:normal;font-weight:normal" x="466" y="243.881">
        <tspan x="466" y="243.881">8</tspan>
      </text>
    </g>
    <g>
      <ellipse style="fill: #ffffff; fill-opacity: 1; stroke-opacity: 1; stroke-width: 2; stroke: #000000" cx="286" cy="331" rx="20" ry="20"/>
      <text font-size="12.8" style="fill: #000000; fill-opacity: 1; stroke: none;text-anchor:middle;font-family:sans-serif;font-style:normal;font-weight:normal" x="286" y="334.881">
        <tspan x="286" y="334.881">9</tspan>
      </text>
    </g>
    <g>
      <ellipse style="fill: #ffffff; fill-opacity: 1; stroke-opacity: 1; stroke-width: 2; stroke: #000000" cx="379" cy="335" rx="20" ry="20"/>
      <text font-size="12.8" style="fill: #000000; fill-opacity: 1; stroke: none;text-anchor:middle;font-family:sans-serif;font-style:normal;font-weight:normal" x="379" y="338.881">
        <tspan x="379" y="338.881">10</tspan>
      </text>
    </g>
    <g>
      <ellipse style="fill: #ffffff; fill-opacity: 1; stroke-opacity: 1; stroke-width: 2; stroke: #000000" cx="567" cy="352" rx="20" ry="20"/>
      <text font-size="12.8" style="fill: #000000; fill-opacity: 1; stroke: none;text-anchor:middle;font-family:sans-serif;font-style:normal;font-weight:normal" x="567" y="355.881">
        <tspan x="567" y="355.881">11</tspan>
      </text>
    </g>
    <g>
      <ellipse style="fill: #ffffff; fill-opacity: 1; stroke-opacity: 1; stroke-width: 2; stroke: #000000" cx="664" cy="353" rx="20" ry="20"/>
      <text font-size="12.8" style="fill: #000000; fill-opacity: 1; stroke: none;text-anchor:middle;font-family:sans-serif;font-style:normal;font-weight:normal" x="664" y="356.881">
        <tspan x="664" y="356.881">12</tspan>
      </text>
    </g>
    <g>
      <ellipse style="fill: #ffffff; fill-opacity: 1; stroke-opacity: 1; stroke-width: 2; stroke: #000000" cx="465" cy="336" rx="20" ry="20"/>
      <ellipse style="fill: none; stroke-opacity: 1; stroke-width: 0.2; stroke: #000000" cx="465" cy="336" rx="16" ry="16"/>
      <text font-size="12.8" style="fill: #000000; fill-opacity: 1; stroke: none;text-anchor:middle;font-family:sans-serif;font-style:normal;font-weight:normal" x="465" y="339.881">
        <tspan x="465" y="339.881">13</tspan>
      </text>
    </g>
    <g>
      <ellipse style="fill: #ffffff; fill-opacity: 1; stroke-opacity: 1; stroke-width: 2; stroke: #000000" cx="193" cy="340" rx="20" ry="20"/>
      <text font-size="12.8" style="fill: #000000; fill-opacity: 1; stroke: none;text-anchor:middle;font-family:sans-serif;font-style:normal;font-weight:normal" x="193" y="343.881">
        <tspan x="193" y="343.881">14</tspan>
      </text>
    </g>
    <g>
      <ellipse style="fill: #ffffff; fill-opacity: 1; stroke-opacity: 1; stroke-width: 2; stroke: #000000" cx="259" cy="416" rx="20" ry="20"/>
      <ellipse style="fill: none; stroke-opacity: 1; stroke-width: 0.2; stroke: #000000" cx="259" cy="416" rx="16" ry="16"/>
      <text font-size="12.8" style="fill: #000000; fill-opacity: 1; stroke: none;text-anchor:middle;font-family:sans-serif;font-style:normal;font-weight:normal" x="259" y="419.881">
        <tspan x="259" y="419.881">15</tspan>
      </text>
    </g>
    <g>
      <line style="fill: none; stroke-opacity: 1; stroke-width: 2; stroke: #000000" x1="209.144" y1="184.856" x2="239.551" y2="159.269"/>
      <polygon style="fill: #000000; fill-opacity: 1; stroke-opacity: 1; stroke-width: 2; stroke: #000000" fill-rule="evenodd" points="245.289,154.44 240.857,164.704 239.551,159.269 234.418,157.053 "/>
    </g>
    <g>
      <line style="fill: none; stroke-opacity: 1; stroke-width: 2; stroke: #000000" x1="290" y1="137" x2="318.264" y2="137"/>
      <polygon style="fill: #000000; fill-opacity: 1; stroke-opacity: 1; stroke-width: 2; stroke: #000000" fill-rule="evenodd" points="325.764,137 315.764,142 318.264,137 315.764,132 "/>
    </g>
    <text font-size="28.2674" style="fill: #000000; fill-opacity: 1; stroke: none;text-anchor:start;font-family:sans-serif;font-style:normal;font-weight:700" x="212.8" y="168.238">
      <tspan x="212.8" y="168.238">i</tspan>
    </text>
    <text font-size="28.2674" style="fill: #000000; fill-opacity: 1; stroke: none;text-anchor:start;font-family:sans-serif;font-style:normal;font-weight:700" x="297.6" y="132.238">
      <tspan x="297.6" y="132.238">f</tspan>
    </text>
    <g>
      <line style="fill: none; stroke-opacity: 1; stroke-width: 2; stroke: #000000" x1="217" y1="209" x2="272.867" y2="229.628"/>
      <polygon style="fill: #000000; fill-opacity: 1; stroke-opacity: 1; stroke-width: 2; stroke: #000000" fill-rule="evenodd" points="279.902,232.225 268.79,233.452 272.867,229.628 272.253,224.071 "/>
    </g>
    <g>
      <line style="fill: none; stroke-opacity: 1; stroke-width: 2; stroke: #000000" x1="206" y1="218" x2="265.502" y2="304.965"/>
      <polygon style="fill: #000000; fill-opacity: 1; stroke-opacity: 1; stroke-width: 2; stroke: #000000" fill-rule="evenodd" points="269.737,311.155 259.964,305.725 265.502,304.965 268.217,300.078 "/>
    </g>
    <g>
      <line style="fill: none; stroke-opacity: 1; stroke-width: 2; stroke: #000000" x1="193" y1="222" x2="193.895" y2="305.264"/>
      <polygon style="fill: #000000; fill-opacity: 1; stroke-opacity: 1; stroke-width: 2; stroke: #000000" fill-rule="evenodd" points="193.976,312.764 188.869,302.818 193.895,305.264 198.868,302.711 "/>
    </g>
    <g>
      <path style="fill: none; stroke-opacity: 1; stroke-width: 2; stroke: #000000" d="M 306,214 A 62.0656,62.0656 0 0 1 372.953,209.678"/>
      <polygon style="fill: #000000; fill-opacity: 1; stroke-opacity: 1; stroke-width: 2; stroke: #000000" fill-rule="evenodd" points="379.236,213.625 368.276,211.42 373.322,209.014 374.424,203.534 "/>
    </g>
    <g>
      <path style="fill: none; stroke-opacity: 1; stroke-width: 2; stroke: #000000" d="M 303,269 A 69.6647,69.6647 0 0 0 376.873,273.233"/>
      <polygon style="fill: #000000; fill-opacity: 1; stroke-opacity: 1; stroke-width: 2; stroke: #000000" fill-rule="evenodd" points="383.208,269.338 378.188,279.328 377.199,273.826 372.204,271.316 "/>
    </g>
    <g>
      <path style="fill: none; stroke-opacity: 1; stroke-width: 2; stroke: #000000" d="M 563,209 A 70.2741,70.2741 0 0 1 652.898,207.442"/>
      <polygon style="fill: #000000; fill-opacity: 1; stroke-opacity: 1; stroke-width: 2; stroke: #000000" fill-rule="evenodd" points="658.465,212.374 647.966,208.531 653.319,206.918 655.24,201.669 "/>
    </g>
    <g>
      <path style="fill: none; stroke-opacity: 1; stroke-width: 2; stroke: #000000" d="M 568,261 A 97.6319,97.6319 0 0 0 656.264,267.216"/>
      <polygon style="fill: #000000; fill-opacity: 1; stroke-opacity: 1; stroke-width: 2; stroke: #000000" fill-rule="evenodd" points="663.037,264.071 656.653,273.249 656.453,267.662 651.864,264.47 "/>
    </g>
    <g>
      <line style="fill: none; stroke-opacity: 1; stroke-width: 2; stroke: #000000" x1="403" y1="241" x2="436.267" y2="240.226"/>
      <polygon style="fill: #000000; fill-opacity: 1; stroke-opacity: 1; stroke-width: 2; stroke: #000000" fill-rule="evenodd" points="443.765,240.052 433.883,245.283 436.267,240.226 433.651,235.286 "/>
    </g>
    <g>
      <line style="fill: none; stroke-opacity: 1; stroke-width: 2; stroke: #000000" x1="490" y1="241" x2="527.284" y2="238.62"/>
      <polygon style="fill: #000000; fill-opacity: 1; stroke-opacity: 1; stroke-width: 2; stroke: #000000" fill-rule="evenodd" points="534.768,238.142 525.107,243.769 527.284,238.62 524.47,233.79 "/>
    </g>
    <g>
      <path style="fill: none; stroke-opacity: 1; stroke-width: 2; stroke: #000000" d="M 677,233 A 105.425,105.425 0 0 0 472.902,205.739"/>
      <polygon style="fill: #000000; fill-opacity: 1; stroke-opacity: 1; stroke-width: 2; stroke: #000000" fill-rule="evenodd" points="470.57,212.838 468.282,201.894 472.48,205.585 477.952,204.441 "/>
    </g>
    <g>
      <path style="fill: none; stroke-opacity: 1; stroke-width: 2; stroke: #000000" d="M 569,327 A 83.3244,83.3244 0 0 1 657.918,323.66"/>
      <polygon style="fill: #000000; fill-opacity: 1; stroke-opacity: 1; stroke-width: 2; stroke: #000000" fill-rule="evenodd" points="664.209,327.661 653.206,325.677 658.203,323.17 659.194,317.668 "/>
    </g>
    <g>
      <path style="fill: none; stroke-opacity: 1; stroke-width: 2; stroke: #000000" d="M 569,379 A 72.5062,72.5062 0 0 0 661.63,384.262"/>
      <polygon style="fill: #000000; fill-opacity: 1; stroke-opacity: 1; stroke-width: 2; stroke: #000000" fill-rule="evenodd" points="667.396,379.558 663.708,390.113 662.017,384.784 656.74,382.94 "/>
    </g>
    <g>
      <path style="fill: none; stroke-opacity: 1; stroke-width: 2; stroke: #000000" d="M 294,310 A 84.8437,84.8437 0 0 1 372.412,305.516"/>
      <polygon style="fill: #000000; fill-opacity: 1; stroke-opacity: 1; stroke-width: 2; stroke: #000000" fill-rule="evenodd" points="379.08,308.854 367.931,308.019 372.641,305.008 373.058,299.434 "/>
    </g>
    <g>
      <path style="fill: none; stroke-opacity: 1; stroke-width: 2; stroke: #000000" d="M 289,358 A 102.104,102.104 0 0 0 370.014,363.66"/>
      <polygon style="fill: #000000; fill-opacity: 1; stroke-opacity: 1; stroke-width: 2; stroke: #000000" fill-rule="evenodd" points="376.972,360.941 370.004,369.685 370.168,364.097 365.796,360.613 "/>
    </g>
    <g>
      <line style="fill: none; stroke-opacity: 1; stroke-width: 2; stroke: #000000" x1="406" y1="334" x2="433.267" y2="333.263"/>
      <polygon style="fill: #000000; fill-opacity: 1; stroke-opacity: 1; stroke-width: 2; stroke: #000000" fill-rule="evenodd" points="440.765,333.06 430.903,338.329 433.267,333.263 430.633,328.332 "/>
    </g>
    <g>
      <line style="fill: none; stroke-opacity: 1; stroke-width: 2; stroke: #000000" x1="491" y1="339" x2="533.377" y2="345.52"/>
      <polygon style="fill: #000000; fill-opacity: 1; stroke-opacity: 1; stroke-width: 2; stroke: #000000" fill-rule="evenodd" points="540.79,346.66 530.146,350.081 533.377,345.52 531.667,340.198 "/>
    </g>
    <g>
      <path style="fill: none; stroke-opacity: 1; stroke-width: 2; stroke: #000000" d="M 688,364 A 117.528,117.528 0 0 1 466.151,372.186"/>
      <polygon style="fill: #000000; fill-opacity: 1; stroke-opacity: 1; stroke-width: 2; stroke: #000000" fill-rule="evenodd" points="463.637,365.143 471.281,373.303 465.775,372.332 461.696,376.154 "/>
    </g>
    <g>
      <path style="fill: none; stroke-opacity: 1; stroke-width: 2; stroke: #000000" d="M 213,331 A 47.0732,47.0732 0 0 1 258.891,382.604"/>
      <polygon style="fill: #000000; fill-opacity: 1; stroke-opacity: 1; stroke-width: 2; stroke: #000000" fill-rule="evenodd" points="257.662,389.864 255.847,378.832 259.883,382.7 265.399,381.793 "/>
    </g>
    <g>
      <path style="fill: none; stroke-opacity: 1; stroke-width: 2; stroke: #000000" d="M 173,355 A 68,68 0 0 0 227.417,425.765"/>
      <polygon style="fill: #000000; fill-opacity: 1; stroke-opacity: 1; stroke-width: 2; stroke: #000000" fill-rule="evenodd" points="234.768,426.873 224.499,431.294 227.28,426.445 225.069,421.311 "/>
    </g>
    <text font-size="28.2674" style="fill: #ff0000; fill-opacity: 1; stroke: none;text-anchor:start;font-family:sans-serif;font-style:normal;font-weight:700" x="169.8" y="266.238">
      <tspan x="169.8" y="266.238">e</tspan>
    </text>
    <text font-size="28.2674" style="fill: #ff0000; fill-opacity: 1; stroke: none;text-anchor:start;font-family:sans-serif;font-style:normal;font-weight:700" x="255.6" y="213.238">
      <tspan x="255.6" y="213.238">e</tspan>
    </text>
    <text font-size="28.2674" style="fill: #ff0000; fill-opacity: 1; stroke: none;text-anchor:start;font-family:sans-serif;font-style:normal;font-weight:700" x="258.4" y="276.238">
      <tspan x="258.4" y="276.238">e</tspan>
    </text>
    <text font-size="28.2674" style="fill: #ff0000; fill-opacity: 1; stroke: none;text-anchor:start;font-family:sans-serif;font-style:normal;font-weight:700" x="416.2" y="228.238">
      <tspan x="416.2" y="228.238">e</tspan>
    </text>
    <text font-size="28.2674" style="fill: #ff0000; fill-opacity: 1; stroke: none;text-anchor:start;font-family:sans-serif;font-style:normal;font-weight:700" x="417" y="319.238">
      <tspan x="417" y="319.238">e</tspan>
    </text>
    <text font-size="28.2674" style="fill: #ff0000; fill-opacity: 1; stroke: none;text-anchor:start;font-family:sans-serif;font-style:normal;font-weight:700" x="502.8" y="230.238">
      <tspan x="502.8" y="230.238">e</tspan>
    </text>
    <text font-size="28.2674" style="fill: #ff0000; fill-opacity: 1; stroke: none;text-anchor:start;font-family:sans-serif;font-style:normal;font-weight:700" x="513.6" y="328.238">
      <tspan x="513.6" y="328.238">e</tspan>
    </text>
    <text font-size="28.2674" style="fill: #ff0000; fill-opacity: 1; stroke: none;text-anchor:start;font-family:sans-serif;font-style:normal;font-weight:700" x="502.4" y="144.238">
      <tspan x="502.4" y="144.238">e</tspan>
    </text>
    <text font-size="28.2674" style="fill: #ff0000; fill-opacity: 1; stroke: none;text-anchor:start;font-family:sans-serif;font-style:normal;font-weight:700" x="487.8" y="402.238">
      <tspan x="487.8" y="402.238">e</tspan>
    </text>
    <text font-size="28.2674" style="fill: #000000; fill-opacity: 1; stroke: none;text-anchor:start;font-family:sans-serif;font-style:normal;font-weight:700" x="708.6" y="246.238">
      <tspan x="708.6" y="246.238">ID</tspan>
    </text>
    <text font-size="28.2674" style="fill: #000000; fill-opacity: 1; stroke: none;text-anchor:start;font-family:sans-serif;font-style:normal;font-weight:700" x="709.4" y="365.238">
      <tspan x="709.4" y="365.238">NUM</tspan>
    </text>
    <text font-size="28.2674" style="fill: #000000; fill-opacity: 1; stroke: none;text-anchor:start;font-family:sans-serif;font-style:normal;font-weight:700" x="299.2" y="427.238">
      <tspan x="299.2" y="427.238">ERROR</tspan>
    </text>
    <text font-size="28.2674" style="fill: #000000; fill-opacity: 1; stroke: none;text-anchor:start;font-family:sans-serif;font-style:normal;font-weight:700" x="387" y="108.238">
      <tspan x="387" y="108.238">IF</tspan>
    </text>
    <text font-size="28.2674" style="fill: #000000; fill-opacity: 1; stroke: none;text-anchor:start;font-family:sans-serif;font-style:normal;font-weight:700" x="329.8" y="197.238">
      <tspan x="329.8" y="197.238">a</tspan>
    </text>
    <text font-size="28.2674" style="fill: #000000; fill-opacity: 1; stroke: none;text-anchor:start;font-family:sans-serif;font-style:normal;font-weight:700" x="383.6" y="288.238">
      <tspan x="383.6" y="288.238">z</tspan>
    </text>
    <text font-size="28.2674" style="fill: #000000; fill-opacity: 1; stroke: none;text-anchor:start;font-family:sans-serif;font-style:normal;font-weight:700" x="321.8" y="326.238">
      <tspan x="321.8" y="326.238">0</tspan>
    </text>
    <text font-size="28.2674" style="fill: #000000; fill-opacity: 1; stroke: none;text-anchor:start;font-family:sans-serif;font-style:normal;font-weight:700" x="293.6" y="390.238">
      <tspan x="293.6" y="390.238">9</tspan>
    </text>
    <text font-size="28.2674" style="fill: #000000; fill-opacity: 1; stroke: none;text-anchor:start;font-family:sans-serif;font-style:normal;font-weight:700" x="559.4" y="185.238">
      <tspan x="559.4" y="185.238">a-z</tspan>
    </text>
    <text font-size="28.2674" style="fill: #000000; fill-opacity: 1; stroke: none;text-anchor:start;font-family:sans-serif;font-style:normal;font-weight:700" x="586.2" y="268.238">
      <tspan x="586.2" y="268.238">0-9</tspan>
    </text>
    <text font-size="28.2674" style="fill: #000000; fill-opacity: 1; stroke: none;text-anchor:start;font-family:sans-serif;font-style:normal;font-weight:700" x="574.8" y="308.238">
      <tspan x="574.8" y="308.238">0</tspan>
    </text>
    <text font-size="28.2674" style="fill: #000000; fill-opacity: 1; stroke: none;text-anchor:start;font-family:sans-serif;font-style:normal;font-weight:700" x="570.6" y="418.238">
      <tspan x="570.6" y="418.238">9</tspan>
    </text>
    <text font-size="22.6229" style="fill: #000000; fill-opacity: 1; stroke: none;text-anchor:start;font-family:sans-serif;font-style:normal;font-weight:700" x="613.4" y="327.238">
      <tspan x="613.4" y="327.238">.</tspan>
      <tspan x="613.4" y="355.517">.</tspan>
      <tspan x="613.4" y="383.795">.</tspan>
    </text>
    <text font-size="22.6229" style="fill: #000000; fill-opacity: 1; stroke: none;text-anchor:start;font-family:sans-serif;font-style:normal;font-weight:700" x="339.8" y="215.238">
      <tspan x="339.8" y="215.238">.</tspan>
      <tspan x="339.8" y="243.517">.</tspan>
      <tspan x="339.8" y="271.795">.</tspan>
    </text>
    <text font-size="22.6229" style="fill: #000000; fill-opacity: 1; stroke: none;text-anchor:start;font-family:sans-serif;font-style:normal;font-weight:700" x="217.6" y="353.238">
      <tspan x="217.6" y="353.238">.</tspan>
      <tspan x="217.6" y="381.517">.</tspan>
      <tspan x="217.6" y="409.795">.</tspan>
    </text>
  </g>
</svg>
